<?xml version="1.0" standalone="no"?>
<!DOCTYPE svg PUBLIC "-//W3C//DTD SVG 1.1//EN" "http://www.w3.org/Graphics/SVG/1.1/DTD/svg11.dtd" >
<svg xmlns="http://www.w3.org/2000/svg">
<metadata></metadata>
<defs>
<font id="quattrocento_romanregular" horiz-adv-x="1382" >
<font-face units-per-em="2048" ascent="1638" descent="-410" />
<missing-glyph horiz-adv-x="518" />
<glyph horiz-adv-x="2048" />
<glyph horiz-adv-x="2048" />
<glyph unicode="&#xd;" horiz-adv-x="2048" />
<glyph unicode=" "  horiz-adv-x="518" />
<glyph unicode="&#x09;" horiz-adv-x="518" />
<glyph unicode="&#xa0;" horiz-adv-x="518" />
<glyph unicode="!" horiz-adv-x="503" d="M154 72q0 39 28.5 68.5t67.5 29.5q37 0 66.5 -30t29.5 -68t-29.5 -66.5t-66.5 -28.5q-40 0 -68 28.5t-28 66.5zM158 1333l8 19l168 53l10 -6q0 -14 -1 -35t-1 -25q-1 -8 -7 -71t-10.5 -135t-12.5 -278.5t-15 -502.5l-10 -14l-72 -33l-12 8q-5 228 -11 405t-11.5 283 t-9 166t-8 109t-5.5 57z" />
<glyph unicode="&#x22;" horiz-adv-x="589" d="M90 1468l2 9l137 18l4 -8q-24 -156 -24 -402l-4 -8l-86 -20l-4 10q-4 230 -25 401zM362 1468l5 9l135 18l4 -8q-21 -137 -25 -402l-4 -8l-86 -20l-4 10q-4 230 -25 401z" />
<glyph unicode="#" horiz-adv-x="1267" d="M82 455l18 108h252l51 244h-262l19 106h266q54 260 66 418l4 8h155l4 -8q-57 -161 -114 -418h274q54 260 66 418l4 8h155l4 -8q-57 -161 -114 -418h258l-19 -106h-262l-51 -244h268l-18 -108h-275q-52 -262 -69 -447l-6 -8h-156l-2 8q54 157 119 447h-275 q-52 -262 -69 -447l-6 -8h-156l-2 8q54 157 119 447h-246zM467 563h274l52 244h-277z" />
<glyph unicode="$" horiz-adv-x="1083" d="M94 129l35 207h51l10 -10q18 -221 308 -230q4 104 4 310v227q-4 0 -6 2q-88 26 -152 54.5t-118.5 71t-82.5 102t-28 136.5q0 162 102 243t279 91q-2 70 -15 197l4 6h125l4 -6q-8 -57 -16 -197q178 -9 309 -65l8 -23l-28 -174h-58l-8 10q-4 41 -25 71.5t-55 48t-69 26.5 t-76 12q-2 -88 -2 -229v-234q2 -2 6 -2q70 -21 122 -41.5t108 -54.5t91.5 -74t59 -100t23.5 -133q0 -87 -31.5 -154.5t-87.5 -110t-127.5 -67t-157.5 -31.5q2 -78 14 -198l-4 -7h-125l-4 7q9 84 15 194q-211 3 -394 96zM264 1024q0 -88 53.5 -133t184.5 -86v205 q0 143 -2 229q-113 -9 -174.5 -64.5t-61.5 -150.5zM594 406q0 -204 2 -308q124 15 187 80t63 166q0 54 -19 96.5t-56.5 73t-78.5 50.5t-98 40v-198z" />
<glyph unicode="%" horiz-adv-x="1597" d="M86 979q0 165 80.5 274t216.5 109t216.5 -109t80.5 -266t-80.5 -268t-222.5 -111q-137 0 -214 106.5t-77 264.5zM186 987q0 -138 55 -219.5t142 -81.5q91 0 144 86t53 215q0 128 -55 212.5t-146 84.5t-142 -82.5t-51 -214.5zM248 39l2 8q188 222 403 522l246 338 q10 14 59 81.5t69.5 96.5t59 85t67.5 103.5t56 96.5l11 8h155l-2 -8q-36 -40 -73 -84.5t-64 -78t-63.5 -82.5t-54.5 -73.5t-56 -77t-49 -67.5l-246 -338q-225 -311 -354 -522l-11 -8h-155zM922 348q0 164 80 273.5t215 109.5q137 0 218 -108.5t81 -266.5q0 -101 -34 -185.5 t-105 -139t-167 -54.5q-92 0 -158.5 51.5t-98 134t-31.5 185.5zM1022 356q0 -137 54.5 -219t140.5 -82q92 0 145 86t53 215t-55.5 213t-147.5 84q-90 0 -140 -82.5t-50 -214.5z" />
<glyph unicode="&#x26;" horiz-adv-x="1519" d="M98 352q0 127 73.5 241.5t197.5 164.5q-67 89 -95 154t-28 139q0 142 87 224.5t226 82.5q61 0 115 -14.5t98.5 -52.5t56.5 -95l7 -20l-25 -146h-68l-8 8q-10 116 -55 165.5t-125 49.5q-85 0 -126.5 -49t-41.5 -123q0 -75 33 -149q32 -71 144 -202.5t392 -426.5 q52 96 52 193q0 112 -76 233q-44 -1 -64.5 -13t-40.5 -38l-28 14q0 41 54.5 98.5t139.5 57.5q19 0 125 -8.5t166 -8.5q47 0 79 10.5t56 43.5l27 -17q0 -9 -10.5 -32.5t-30.5 -52.5t-58 -50.5t-85 -21.5q-14 0 -46.5 2t-77.5 5l-75 5q61 -91 61 -234q0 -161 -77 -276 q85 -85 162.5 -126.5t181.5 -45.5l12 -8l6 -37l-6 -8q-31 0 -117 -4t-98 -4q-99 0 -234 131q-76 -63 -178 -97t-211 -34q-123 0 -227.5 41t-172 127.5t-67.5 203.5zM246 367q0 -89 52.5 -154.5t127.5 -95t158 -29.5q77 0 153.5 28.5t134.5 80.5q-36 40 -189.5 204.5 t-238.5 264.5q-94 -29 -146 -117.5t-52 -181.5z" />
<glyph unicode="'" horiz-adv-x="315" d="M90 1468l2 9l137 18l4 -8q-24 -156 -24 -402l-4 -8l-86 -20l-4 10q-4 230 -25 401z" />
<glyph unicode="(" horiz-adv-x="579" d="M82 670q0 258 108.5 493t305.5 416l30 -23v-10q-177 -221 -239 -475q-41 -166 -41 -401q0 -82 3.5 -146.5t20 -162.5t44.5 -183t82.5 -188t129.5 -197v-10l-30 -23q-196 176 -305 413.5t-109 496.5z" />
<glyph unicode=")" horiz-adv-x="579" d="M53 -207q75 94 128.5 197t82 188.5t45 183t20 162.5t3.5 146q0 233 -41 401q-61 252 -238 475v10l31 23q197 -178 305.5 -415t108.5 -494q0 -258 -109.5 -496.5t-304.5 -413.5l-31 23v10z" />
<glyph unicode="*" horiz-adv-x="845" d="M106 975q0 1 1.5 6.5t1.5 7.5q131 49 251 113q-92 48 -126 62.5t-117 41.5l-4 15q44 56 61 98l8 2q39 -37 215 -164q-18 156 -51 273l6 8q25 -4 60 -4q37 0 57 4l6 -6q-20 -89 -20 -275q78 60 117.5 94.5t84.5 81.5q3 -6 11 -6q27 -56 57 -96q-2 -4 -2 -14 q-142 -56 -248 -113q78 -43 128.5 -64t137.5 -45l4 -10q-46 -54 -59 -102q-2 0 -5.5 -1t-4.5 -1q-85 71 -221 161q17 -188 34 -270l-8 -6q-27 2 -55 2q-32 0 -57 -2l-7 6q13 73 31 272q-134 -92 -219 -165q-2 0 -5 1t-5 1q-22 50 -58 94z" />
<glyph unicode="+" horiz-adv-x="989" d="M90 436l19 107h331v331h107v-331h352l-20 -107h-332v-352h-107v352h-350z" />
<glyph unicode="," horiz-adv-x="436" d="M104 -137q48 75 48 139q0 13 -11.5 45t-11.5 55q0 31 39 49.5t82 18.5q51 0 51 -88q0 -72 -60.5 -145.5t-111.5 -94.5h-12l-13 13v8z" />
<glyph unicode="-" horiz-adv-x="964" d="M137 436l19 107h673l-20 -107h-672z" />
<glyph unicode="." horiz-adv-x="444" d="M127 72q0 39 27.5 68.5t66.5 29.5q38 0 68 -30t30 -68t-29.5 -66.5t-68.5 -28.5t-66.5 28t-27.5 67z" />
<glyph unicode="/" horiz-adv-x="880" d="M76 -109q93 187 250 619l137 377q132 361 172 543l6 8h160l2 -8q-31 -59 -67.5 -144t-55.5 -133.5t-57 -153.5t-41 -112l-140 -377q-146 -389 -200 -619l-6 -8h-160v8z" />
<glyph unicode="0" horiz-adv-x="1359" d="M137 659q0 196 63.5 354.5t188.5 253.5t291 95q125 0 229.5 -55.5t172.5 -150t105.5 -219t37.5 -263.5q0 -137 -36.5 -261t-104.5 -222t-175.5 -156t-238.5 -58q-128 0 -231 54.5t-168 149t-99.5 217t-34.5 261.5zM297 674q0 -270 105.5 -429t275.5 -159q119 0 209 80.5 t135 212.5t45 293q0 165 -47 296.5t-138 208t-210 76.5t-205 -76t-128 -205.5t-42 -297.5z" />
<glyph unicode="1" horiz-adv-x="747" d="M92 1108v27l6 12q104 50 180 97.5t146 113.5h14l45 -19q-3 -19 -4.5 -50t-2 -63.5t-1.5 -43.5q-6 -88 -6 -365v-289q0 -266 8 -360q4 -60 49 -100q18 -13 56.5 -22t70.5 -9l11 -10l4 -27l-4 -8q-156 8 -209 8h-117q-53 0 -209 -8l-4 8l4 29l6 8q36 0 76.5 8.5t56.5 22.5 q45 40 49 100q9 105 9 311v334q0 243 -9 342l-219 -55z" />
<glyph unicode="2" horiz-adv-x="1128" d="M106 10v47q46 60 165.5 194t242.5 276t191 237q54 75 82 138.5t28 131.5q0 99 -75.5 159t-190.5 60q-137 0 -220.5 -70.5t-90.5 -203.5l-9 -8h-69l-25 147l6 19q56 98 160.5 161.5t259.5 63.5q208 0 306 -92t98 -260q0 -86 -38.5 -161.5t-121.5 -186.5 q-60 -81 -177 -215.5t-192.5 -225.5t-75.5 -117l5 -6h159q71 0 111 0.5t85.5 3t67.5 6.5t47.5 13t36.5 19t24 29t19.5 39.5t14.5 51.5l10 12h55l-37 -264l-18 -20q-222 12 -399 12h-203q-71 0 -211 -12z" />
<glyph unicode="3" horiz-adv-x="1142" d="M123 182l22 127h68l6 -8q3 -87 89 -151t229 -64q88 0 153.5 27t100 72t50 93t15.5 101q0 77 -29.5 143.5t-95.5 112t-158 45.5h-57l23 76q113 0 180 82t67 194q0 45 -12.5 82.5t-40.5 70t-79.5 50.5t-123.5 18q-71 0 -121.5 -18.5t-80.5 -56t-46 -85t-24 -114.5l-8 -8 h-68l-24 147l4 19q50 93 153 159t252 66q71 0 137 -20t120 -57.5t86 -99t32 -138.5q0 -117 -61 -199t-138 -113q125 -28 197 -122t72 -226q0 -182 -137 -296t-359 -114q-261 0 -391 187z" />
<glyph unicode="4" horiz-adv-x="1048" d="M47 502q105 184 295.5 470t257.5 371l133 19h17l24 -23q-3 -19 -4.5 -50t-2 -63.5t-1.5 -43.5q-6 -88 -6 -365v-264h133l8 -12l-22 -84l-15 -11h-104q0 -198 8 -278q4 -64 51 -100q17 -13 56 -22t71 -9l8 -10l4 -27l-4 -8q-156 8 -206 8h-115q-76 0 -232 -8l-2 8l9 29 l8 8q37 0 83 8.5t62 22.5q45 40 49 100q8 91 8 278h-530l-18 11zM201 553h417v260q0 227 -6 377q-77 -89 -208.5 -288.5t-202.5 -348.5z" />
<glyph unicode="5" horiz-adv-x="1118" d="M123 164l22 145h74l6 -8q3 -96 81 -155.5t216 -59.5q90 0 156 26.5t103.5 73.5t55 103t17.5 123q0 280 -301 280q-159 0 -307 -74l-70 52l66 653l12 16h184q186 0 414 17l18 -17l31 -221l-12 -14h-37l-12 10q-6 34 -11.5 52t-22 34.5t-33.5 22.5t-61 11.5t-88 6t-130 0.5 h-123q-13 0 -13 -10l-41 -459q106 41 254 41q70 0 131.5 -11.5t118 -40t96.5 -71.5t63.5 -110t23.5 -152q0 -214 -137.5 -332.5t-364.5 -118.5q-254 0 -377 166z" />
<glyph unicode="6" horiz-adv-x="1144" d="M152 621q0 77 5.5 147.5t20 146t37.5 139.5t60 122t85 98t116 64t149 24q85 0 177.5 -22t147.5 -74l-30 -129h-37q-69 116 -244 116q-95 0 -164 -41.5t-107.5 -114.5t-56.5 -159t-18 -188q0 -27 4 -60l6 -2q98 133 293 133q105 0 186 -29.5t126 -72.5t73.5 -101.5 t37.5 -107.5t9 -100q0 -63 -14.5 -123t-48.5 -117t-83 -99.5t-123 -68t-165 -25.5q-97 0 -172.5 30t-126 84.5t-83 135.5t-46.5 177.5t-14 216.5zM313 416q0 -42 7.5 -84t27 -87.5t49.5 -80t80.5 -56.5t114.5 -22q137 0 217 91.5t80 236.5q0 41 -6.5 79t-25.5 78.5t-49 70 t-82 48.5t-120 19q-143 0 -218 -78.5t-75 -214.5z" />
<glyph unicode="7" horiz-adv-x="1050" d="M80 1118l31 221l16 17q368 -17 625 -17h280l10 -6l-10 -51q-40 -52 -192.5 -335t-255.5 -498q-145 -302 -185 -435l-10 -14q-93 0 -192 -12l-15 20q172 303 400.5 732.5t228.5 492.5l-10 8h-279q-65 0 -103 -0.5t-80.5 -2.5t-65 -5t-47.5 -10t-36.5 -15.5t-23 -22.5 t-17.5 -30.5t-10 -40.5l-12 -10h-37z" />
<glyph unicode="8" horiz-adv-x="1171" d="M133 381q0 131 63 229.5t185 141.5q-178 73 -178 274q0 158 103 247t274 89t280 -89t109 -249q0 -202 -178 -272q86 -29 143 -89.5t80.5 -131t23.5 -150.5q0 -62 -14 -118t-47.5 -109t-84.5 -91.5t-130 -62t-178 -23.5t-177.5 23t-128.5 61.5t-83.5 91.5t-47.5 109.5 t-14 118.5zM289 371q0 -47 16 -94.5t48.5 -91.5t93 -71.5t139.5 -27.5q65 0 116.5 16.5t84.5 44t55.5 64.5t31.5 75.5t9 80.5q0 57 -17 111.5t-51 102t-94.5 76.5t-138.5 29q-63 0 -114 -20t-84 -52t-55 -74t-31 -84t-9 -85zM358 1036q0 -121 61.5 -185.5t166.5 -64.5 q98 0 162.5 71.5t64.5 174.5q0 221 -231 221q-224 0 -224 -217z" />
<glyph unicode="9" horiz-adv-x="1142" d="M117 930q0 63 14.5 123t48 116.5t82.5 99t123.5 68t165.5 25.5q97 0 172.5 -30t126 -84t83 -135t46.5 -177.5t14 -216.5q0 -77 -5.5 -147.5t-20.5 -146.5t-38 -139.5t-60 -122t-85.5 -98.5t-116.5 -64t-149 -24q-84 0 -176.5 22.5t-146.5 74.5l30 129h37q36 -63 103 -90 t141 -27q94 0 163.5 41.5t108 114.5t56.5 159.5t18 188.5q0 26 -4 59l-6 2q-101 -133 -293 -133q-105 0 -186 29.5t-126 72.5t-73.5 102t-37.5 108t-9 100zM256 926q0 -41 6.5 -79t25.5 -78.5t49 -70t82 -48.5t120 -19q143 0 216.5 78.5t73.5 214.5q0 42 -7 84t-26.5 87.5 t-49.5 79.5t-80 56t-115 22q-136 0 -215.5 -91t-79.5 -236z" />
<glyph unicode=":" horiz-adv-x="464" d="M137 72q0 39 27.5 68.5t66.5 29.5q38 0 68.5 -30t30.5 -68t-30 -66.5t-69 -28.5t-66.5 28t-27.5 67zM137 836q0 39 27.5 67.5t66.5 28.5t69 -29t30 -67q0 -39 -30 -68t-69 -29t-66.5 28.5t-27.5 68.5z" />
<glyph unicode=";" horiz-adv-x="485" d="M135 -137q49 73 49 139q0 13 -12 45t-12 55q0 31 39 49.5t82 18.5q21 0 33.5 -16.5t16 -34.5t3.5 -37q0 -72 -61 -145.5t-113 -94.5h-10l-15 13v8zM150 836q0 39 27.5 67.5t66.5 28.5q38 0 68 -29t30 -67q0 -39 -29.5 -68t-68.5 -29t-66.5 28.5t-27.5 68.5z" />
<glyph unicode="&#x3c;" horiz-adv-x="851" d="M88 487v11q299 173 584 381l8 -9l18 -77v-15q-252 -144 -446 -280v-11q165 -116 446 -280v-14l-18 -78l-8 -9q-285 208 -584 381z" />
<glyph unicode="=" horiz-adv-x="999" d="M154 281l18 106h674l-21 -106h-671zM154 592l18 106h674l-21 -106h-671z" />
<glyph unicode="&#x3e;" horiz-adv-x="851" d="M154 193v14q281 164 446 280v11q-194 136 -446 280v15l18 77l8 9q285 -208 584 -381v-11q-299 -173 -584 -381l-8 9z" />
<glyph unicode="?" horiz-adv-x="874" d="M90 1274l4 18q33 53 137 83t189 30q39 0 80 -8.5t88.5 -31.5t83.5 -58t60 -95t24 -135q0 -70 -30 -143.5t-73.5 -134.5t-87 -117t-75.5 -109.5t-35 -93.5l-9 -127l-12 -14l-72 -33l-12 8q-1 25 -2.5 70.5t-2.5 78.5t-1 50q0 60 28 122t68.5 116.5t81 109.5t68.5 120.5 t28 131.5q0 98 -63 152.5t-141 54.5q-105 0 -175 -66.5t-83 -162.5l-4 -7h-37zM303 74q0 40 28 68t66 28q39 0 69 -28.5t30 -67.5q0 -38 -30.5 -67.5t-68.5 -29.5t-66 29t-28 68z" />
<glyph unicode="@" horiz-adv-x="1470" d="M111 369q0 97 26 198t83.5 201t139.5 178.5t204 127t267 48.5q112 0 205.5 -29.5t157.5 -78.5t109 -114.5t65.5 -137t20.5 -146.5q0 -122 -51.5 -227.5t-148.5 -171t-218 -65.5q-92 0 -121 37t-29 112q-34 -69 -86.5 -110t-105.5 -41q-67 0 -119.5 65.5t-52.5 179.5 q0 117 60 211t148.5 142.5t182.5 48.5q55 0 112 -17.5t89 -50.5l-76 -364q-8 -62 -8 -72q0 -30 13 -43.5t46 -13.5q71 0 130 54.5t90.5 139.5t31.5 178q0 80 -26.5 154t-78 137t-140.5 101t-202 38q-114 0 -213 -39t-169 -105t-120.5 -152t-75 -181t-24.5 -192 q0 -125 41 -221t112.5 -153.5t160 -86.5t190.5 -29q149 0 269.5 53t185.5 111l26 -20l-34 -70q-54 -52 -186.5 -106t-280.5 -54q-163 0 -299.5 70t-218.5 203t-82 303zM592 369q0 -65 18 -98t47 -33q51 0 112 76t79 155l51 256q-12 12 -51 12q-52 0 -96 -25t-73 -64 t-49 -88.5t-29 -98t-9 -92.5z" />
<glyph unicode="A" d="M-39 -4l4 37l10 8q34 0 53 3t46.5 14.5t51 41.5t46.5 78q26 53 266 670q41 104 105.5 265t74.5 187l121 62h23l336 -930q63 -178 96 -254q22 -48 45.5 -78t51 -41.5t47 -14.5t53.5 -3l10 -8l6 -37l-4 -8q-4 0 -92 6t-111 6h-67q-17 0 -64.5 -2.5t-103 -6t-64.5 -3.5l-4 8 l6 37l8 8q67 0 96 16t29 70q0 18 -5 42t-17 59.5t-22.5 65.5t-31 85.5t-34.5 93.5l-35 98h-459l-35 -98q-14 -38 -34.5 -93.5t-31 -85.5t-22.5 -65.5t-17 -59.5t-5 -42q0 -54 29 -70t96 -16l10 -8l6 -37l-4 -8q-12 1 -62 4t-95 5.5t-62 2.5h-39q-23 0 -111 -6t-92 -6z M467 659h391l-194 527z" />
<glyph unicode="B" horiz-adv-x="1202" d="M88 -4l6 37l10 8q81 0 109 18q41 28 51 119q4 82 4 275v512q0 128 -4 196q-4 80 -51 117q-21 12 -41 16t-68 4l-10 9l-6 36l4 9q6 0 80.5 -6.5t108.5 -6.5h73q32 0 109.5 1t93.5 1q213 0 313.5 -81.5t100.5 -227.5q0 -205 -187 -297q312 -55 312 -350q0 -131 -65 -219 t-175 -127t-262 -39h-272q-17 0 -64 -2.5t-101.5 -6t-64.5 -3.5zM414 680q0 -420 6 -502q3 -51 19.5 -65.5t52.5 -14.5h124q43 0 85 7t89 27t82.5 50.5t58.5 81.5t23 117q0 143 -97 221t-249 78h-194zM414 840q0 -52 5 -68t30 -16h61q78 0 133 10t98 41q46 31 74.5 85.5 t28.5 125.5q0 107 -61.5 165t-174.5 58h-184q-10 -195 -10 -274v-127z" />
<glyph unicode="C" horiz-adv-x="1337" d="M111 664q0 146 45 272t129.5 221.5t216.5 150t297 54.5q93 0 207 -16.5t208 -53.5l7 -18l-27 -187h-59l-7 9q-8 57 -63 94t-124.5 50t-154.5 13q-202 0 -319 -92q-94 -77 -143.5 -205.5t-49.5 -283.5q0 -280 153.5 -434t399.5 -154q99 0 206.5 26.5t195.5 88.5l20 -23 l-45 -92q-195 -107 -413 -107q-202 0 -356.5 86t-239 242t-84.5 359z" />
<glyph unicode="D" horiz-adv-x="1503" d="M88 -4l6 37l10 8q81 0 109 18q41 28 51 119q4 82 4 254v416q0 245 -4 313q-8 86 -51 117q-21 12 -41 16t-68 4l-10 9l-6 36l4 9l88 -6q88 -7 123 -7h117q37 0 149.5 4.5t145.5 4.5q156 0 285 -53.5t213.5 -146t131 -215t46.5 -261.5q0 -136 -45 -257t-129 -215t-217 -149 t-298 -55q-23 0 -132 2t-140 2h-108q-17 0 -64 -2.5t-101.5 -6t-64.5 -3.5zM414 473q0 -248 6 -295q6 -52 25.5 -66t74.5 -14h197q159 0 276 77.5t174.5 206t57.5 290.5q0 124 -35.5 228.5t-101 180t-163.5 118t-218 42.5h-283q-10 -195 -10 -391v-377z" />
<glyph unicode="E" horiz-adv-x="1148" d="M88 -4l6 37l10 8q81 0 109 20q14 12 21.5 21.5t17 35t12.5 60.5q4 82 4 254v416q0 250 -4 313q-2 34 -11.5 59.5t-17.5 35t-22 22.5q-28 20 -109 20l-10 9l-6 36l4 9q9 0 64.5 -4t107.5 -6.5t78 -2.5h336q42 0 189.5 4.5t154.5 4.5l10 -21l-8 -223h-51l-8 8 q-6 95 -51.5 112t-292.5 17h-197l-4 -80q-6 -114 -6 -311v-100q35 1 97 1.5t96.5 1t76 3.5t64.5 10t32 18q1 2 11 12.5t12.5 14.5t8 13t7.5 18.5t2 21.5l10 10l35 5l8 -5q-10 -153 -10 -161q0 -18 10 -183l-8 -4l-37 4l-8 7q0 61 -41 106q-9 10 -31.5 16t-64.5 8.5 t-73.5 3.5t-98 1h-98.5v-199q0 -232 10 -336q0 -21 9.5 -30t31.5 -9h174q89 0 141 1.5t96.5 9t64.5 15.5t38 30.5t25 44.5t18 65l8 8h53l-36 -260l-17 -20q-7 0 -130 4t-165 4h-413q-17 0 -64 -2.5t-101.5 -6t-64.5 -3.5z" />
<glyph unicode="F" horiz-adv-x="1083" d="M88 -4l6 37l10 8q81 0 109 20q14 12 21.5 21.5t17 35t12.5 60.5q4 82 4 254v416q0 187 -4 313q-3 35 -12.5 60.5t-17 35t-21.5 21.5q-28 20 -109 20l-10 9l-6 36l4 9q12 -1 65 -4.5t100.5 -6t64.5 -2.5h356q42 0 189.5 4.5t154.5 4.5l10 -21l-8 -223h-51l-8 8 q-6 95 -51.5 112t-292.5 17h-197l-4 -80q-6 -114 -6 -311v-100q35 1 97 1.5t96.5 1t76 3.5t64.5 10t32 18q1 2 11 12.5t12.5 14.5t8 13t7.5 18.5t2 21.5l10 10l35 5l8 -5q-10 -153 -10 -161q0 -18 10 -183l-8 -4l-37 4l-8 7q0 61 -41 106q-9 10 -31.5 16t-64.5 8.5 t-73.5 3.5t-98 1h-98.5v-199q0 -201 6 -295q2 -35 12 -60.5t18.5 -35t24.5 -21.5q28 -20 123 -20l10 -8l6 -37l-4 -8q-234 12 -250 12h-38q-17 0 -64 -2.5t-101.5 -6t-64.5 -3.5z" />
<glyph unicode="G" horiz-adv-x="1411" d="M113 662q0 146 45 272.5t129.5 222.5t216.5 150.5t297 54.5q82 0 197.5 -21.5t215.5 -60.5l5 -18l-27 -185h-57l-9 6q-22 170 -340 170q-200 0 -317 -92q-94 -77 -143.5 -206t-49.5 -285q0 -268 139 -420t378 -152q141 0 251 43q17 7 17 43q0 134 -4 187q-6 76 -51 116 q-29 21 -125 21l-11 8l-6 45l4 8q11 -1 63 -4t98 -5.5t63 -2.5h61q23 0 96.5 5.5t83.5 6.5l4 -8l-4 -49l-10 -8q-57 0 -82.5 -34.5t-28.5 -98.5q-6 -114 -6 -217q0 -75 6 -93l-8 -10q-90 -28 -132 -39t-125.5 -23t-178.5 -12q-158 0 -284.5 54.5t-206.5 149t-122 217.5 t-42 264z" />
<glyph unicode="H" horiz-adv-x="1556" d="M88 -4l6 37l10 8q81 0 109 20q14 12 21.5 21.5t17 35t12.5 60.5q4 82 4 254v416q0 250 -6 313q-6 79 -49 117q-28 20 -109 20l-10 9l-6 36l4 9q12 -1 65 -4.5t100.5 -6t64.5 -2.5h38q17 0 64.5 2.5t100.5 6t65 4.5l4 -9l-6 -36l-8 -9q-83 0 -111 -20q-14 -12 -21.5 -21.5 t-16.5 -35t-11 -60.5q-6 -76 -6 -311v-92h729v90q0 218 -6 313q-2 35 -11 60.5t-17 34.5t-22 22q-28 20 -110 20l-8 9l-6 36l4 9q12 -1 64.5 -4.5t100 -6t64.5 -2.5h39q17 0 64.5 2.5t100 6t64.5 4.5l4 -9l-6 -36l-10 -9q-81 0 -109 -20q-14 -12 -21.5 -21.5t-17 -35 t-12.5 -60.5q-4 -76 -4 -311v-377q0 -232 4 -295q2 -35 11.5 -60.5t17 -34.5t22.5 -22q28 -20 109 -20l10 -8l6 -37l-4 -8q-10 1 -64 4t-101 5.5t-64 2.5h-39q-17 0 -64 -2.5t-101 -5.5t-64 -4l-4 8l6 37l8 8q82 0 110 20q42 37 50 117q6 61 6 254v236h-729v-195 q0 -201 6 -295q2 -35 11 -60.5t16.5 -35t21.5 -21.5q28 -20 111 -20l8 -8l6 -37l-4 -8q-10 0 -64.5 3.5t-101.5 6t-64 2.5h-38q-17 0 -64 -2.5t-101.5 -6t-64.5 -3.5z" />
<glyph unicode="I" horiz-adv-x="684" d="M88 -4l6 37l10 8q81 0 109 20q14 12 21.5 21.5t17 35t12.5 60.5q4 82 4 254v416q0 250 -6 313q-7 79 -49 117q-28 20 -109 20l-10 9l-6 36l4 9q12 -1 65 -4.5t100.5 -6t64.5 -2.5h38q17 0 64.5 2.5t100.5 6t65 4.5l4 -9l-6 -36l-8 -9q-83 0 -111 -20q-14 -12 -21.5 -21.5 t-16.5 -35t-11 -60.5q-6 -76 -6 -311v-377q0 -201 6 -295q2 -35 11 -60.5t16.5 -35t21.5 -21.5q28 -20 111 -20l8 -8l6 -37l-4 -8q-10 0 -64.5 3.5t-101.5 6t-64 2.5h-38q-17 0 -64 -2.5t-101.5 -6t-64.5 -3.5z" />
<glyph unicode="J" horiz-adv-x="655" d="M37 -268l8 10q61 0 88 10q23 13 47 37q19 19 32 46.5t21.5 76t13 88t6.5 122.5t2.5 137.5t0.5 172.5v416q0 218 -6 313q-4 77 -49 117q-28 20 -109 20l-10 9l-6 36l4 9q12 -1 64.5 -4.5t100 -6t64.5 -2.5h39q17 0 64.5 2.5t100.5 6t65 4.5l4 -9l-7 -36l-8 -9 q-82 0 -110 -20q-14 -12 -21.5 -21.5t-16.5 -35t-11 -60.5q-7 -89 -7 -311v-377q0 -114 -1 -208.5t-1 -108.5q-1 -112 -31.5 -211.5t-92.5 -171t-144 -86.5q-34 -6 -74 -6l-16 6z" />
<glyph unicode="K" horiz-adv-x="1343" d="M88 -4l6 37l10 8q81 0 109 20q14 12 21.5 21.5t17 35t12.5 60.5q4 82 4 254v416q0 250 -4 313q-2 34 -11.5 59.5t-17.5 35t-22 22.5q-28 20 -109 20l-10 9l-6 36l4 9q12 -1 65 -4.5t100.5 -6t64.5 -2.5h38q17 0 64.5 2.5t100.5 6t65 4.5l4 -9l-6 -36l-8 -9 q-83 0 -111 -20q-14 -12 -21.5 -21.5t-16.5 -35t-11 -60.5q-6 -76 -6 -311v-139q120 73 286 239q88 88 147.5 165.5t59.5 105.5q0 13 -3 23t-10.5 17t-13 12t-18.5 9t-19 6t-23.5 5.5l-22.5 4.5l-11 9v36l11 9q89 -13 180 -13h100q65 0 164 13l8 -9v-36l-8 -9 q-4 -1 -30.5 -6.5t-42 -9t-38 -12t-36.5 -17.5q-24 -15 -59.5 -53.5t-107 -118.5t-145.5 -155l-164 -168q170 -257 377 -502q49 -57 77.5 -86t71.5 -60t92.5 -46.5t117.5 -22.5l12 -8l4 -37l-4 -8q-32 0 -102 -4t-90 -4q-52 0 -90.5 10.5t-78 40t-72.5 66t-89 106.5 q-15 19 -142.5 199.5t-191.5 273.5h-8q-8 -6 -38.5 -27t-49.5 -37v-139q0 -201 6 -295q2 -35 11 -60.5t16.5 -35t21.5 -21.5q28 -20 111 -20l8 -8l6 -37l-4 -8q-10 0 -64.5 3.5t-101.5 6t-64 2.5h-38q-17 0 -64 -2.5t-101.5 -6t-64.5 -3.5z" />
<glyph unicode="L" horiz-adv-x="1052" d="M88 -4l6 37l10 8q81 0 109 20q43 38 51 117q4 82 4 254v416q0 187 -4 313q-3 35 -12.5 60.5t-17 35t-21.5 21.5q-28 20 -109 20l-10 9l-6 36l4 9q12 -1 65 -4.5t100.5 -6t64.5 -2.5h38q17 0 64.5 2.5t100.5 6t65 4.5l4 -9l-6 -36l-8 -9q-83 0 -111 -20 q-14 -12 -21.5 -21.5t-16.5 -35t-11 -60.5q-6 -76 -6 -311v-377q0 -106 6 -295l4 -41q0 -21 9.5 -30t31.5 -9h174q79 0 124.5 0.5t83.5 7.5t54 11.5t29.5 23t17.5 31.5t11 48q6 28 10 44l6 8h53l-37 -260l-16 -20q-7 0 -102.5 4t-137.5 4h-413q-17 0 -64 -2.5t-101.5 -6 t-64.5 -3.5z" />
<glyph unicode="M" horiz-adv-x="1828" d="M43 -4l6 37l12 8q79 0 109 20q15 12 24 22t19.5 35t15.5 60q13 86 25 254l29 416q16 217 16 313q0 82 -51 117q-28 20 -109 20l-10 9l-6 36l4 9q12 -1 64.5 -4.5t100 -6t64.5 -2.5h72q26 0 82 9l10 -7q2 -25 17.5 -74.5t32.5 -95.5t47 -124.5t45 -120.5l139 -379 q39 -110 117 -285q15 23 105 237.5t185.5 476.5t110.5 363l10 9q52 -9 70 -9h74q17 0 64.5 2.5t100 6t64.5 4.5l4 -9l-6 -36l-10 -9q-83 0 -109 -20q-51 -41 -51 -117q0 -86 16 -311l25 -377q16 -217 28 -295q5 -35 15 -60t19 -35.5t24 -21.5q28 -20 110 -20l11 -8l6 -37 l-2 -8q-10 0 -64.5 3.5t-101.5 6t-64 2.5h-39q-17 0 -64 -2.5t-101 -5.5t-64 -4l-6 8l6 37l8 8q83 0 109 20q13 13 19.5 22t14 34.5t7.5 60.5q0 92 -10 254q-39 547 -56 696q-12 -28 -194 -482.5t-252 -618.5h-86l-416 1097q-3 -24 -5 -54.5t-6 -93.5t-9 -126l-29 -377 q-14 -184 -14 -295q0 -35 7.5 -60t15 -35t20.5 -22q22 -20 92 -20l8 -8l6 -37l-4 -8q-6 0 -90 6t-107 6h-39q-17 0 -63.5 -2.5t-100 -5.5t-63.5 -4z" />
<glyph unicode="N" horiz-adv-x="1527" d="M88 -4l6 37l10 8q79 0 109 20q43 33 51 117q4 41 4 254v416q0 250 -4 313q-6 85 -51 117q-28 20 -109 20l-10 9l-6 36l4 9q9 0 91.5 -6.5t105.5 -6.5h71q28 0 84 9l11 -7q4 -16 14 -38t28.5 -56t33 -59.5t44.5 -74.5t44.5 -72t51.5 -81.5t48 -76.5q71 -114 148 -227.5 t125.5 -180.5t96 -131t54.5 -74q2 39 2 162v416q0 218 -6 313q-3 35 -11.5 60t-16.5 35t-21 22q-28 20 -111 20l-8 9l-6 36l4 9q11 -1 89 -7t101 -6h96q66 0 193 13l2 -9l-4 -36l-10 -9q-83 0 -109 -20q-20 -16 -31.5 -40.5t-15.5 -76.5q-6 -76 -6 -311v-361q0 -314 14 -497 l-16 -10l-119 8l-20 24l-738 1092q-2 -53 -2 -256v-377q0 -232 6 -295q8 -87 52 -117q29 -20 110 -20l10 -8l7 -37l-5 -8q-12 1 -60.5 4t-92 5.5t-60.5 2.5h-38q-17 0 -64 -2.5t-101.5 -6t-64.5 -3.5z" />
<glyph unicode="O" horiz-adv-x="1562" d="M113 659q0 146 46 274t130 223.5t211.5 150.5t281.5 55q155 0 283.5 -55.5t212 -150.5t129 -219t45.5 -263q0 -109 -27.5 -210.5t-84.5 -190t-137 -154.5t-192 -104t-243 -38q-158 0 -284.5 54.5t-206.5 149t-122 217t-42 261.5zM272 674q0 -270 140.5 -429t367.5 -159 q158 0 276.5 80.5t178 212.5t59.5 293q0 165 -62 296.5t-182.5 208t-279.5 76.5q-236 0 -367 -161t-131 -418z" />
<glyph unicode="P" horiz-adv-x="1122" d="M88 -4l6 37l10 8q81 0 109 18q41 28 51 119q4 82 4 254v533q0 128 -4 196q-4 81 -51 117q-21 12 -41 16t-68 4l-10 9l-6 36l4 9q6 0 80.5 -6.5t108.5 -6.5h73q32 0 109.5 1t95.5 1q262 0 382 -98t120 -272q0 -91 -33 -162t-84.5 -113.5t-124 -70t-143 -37.5t-148.5 -10 h-114q0 -314 6 -400q4 -78 49 -117q21 -12 41.5 -16t69.5 -4l8 -8l6 -37l-4 -8q-10 0 -64.5 3.5t-101.5 6t-64 2.5h-38q-17 0 -64 -2.5t-101.5 -6t-64.5 -3.5zM414 743q0 -52 12.5 -63.5t65.5 -11.5h108q320 0 320 293q0 137 -84.5 208.5t-233.5 71.5h-178 q-10 -195 -10 -274v-224z" />
<glyph unicode="Q" horiz-adv-x="1562" d="M113 659q0 146 46 274t130 223.5t211.5 150.5t281.5 55q155 0 283.5 -55.5t212 -150.5t129 -219t45.5 -263q0 -105 -26 -203t-79 -184t-127.5 -152t-178 -107t-224.5 -48q96 -1 190 -24.5t157 -51t144 -50t154 -22.5q88 0 154 39l6 -4l8 -17l-2 -8q-106 -125 -248 -125 q-62 0 -139.5 28.5t-142.5 62t-162 62t-193 28.5q-167 0 -227 -43l-6 2l-10 28l2 6q110 76 254 86q-155 1 -279.5 56.5t-202.5 149.5t-119.5 215.5t-41.5 260.5zM272 674q0 -270 140.5 -429t367.5 -159q158 0 276.5 80.5t178 212.5t59.5 293q0 165 -62 296.5t-182.5 208 t-279.5 76.5q-236 0 -367 -161t-131 -418z" />
<glyph unicode="R" horiz-adv-x="1298" d="M90 -4l6 37l10 8q81 0 109 18q41 28 51 119q4 82 4 254v533q0 94 -6 196q-5 83 -49 117q-21 12 -41 16t-68 4l-10 9l-6 36l4 9q6 0 80.5 -6.5t108.5 -6.5h73q32 0 109.5 1t95.5 1q260 0 381 -94t121 -254q0 -67 -21 -125t-54.5 -98.5t-79.5 -73t-92.5 -51.5t-96.5 -31 q136 -191 278 -358q49 -57 77.5 -86t71.5 -60t92.5 -46.5t117.5 -22.5l12 -8l4 -37l-4 -8q-32 0 -102 -4t-90 -4q-52 0 -90.5 11t-78.5 42t-72.5 66t-88.5 104q-30 30 -281 397h-149q0 -336 6 -422q4 -78 49 -117q21 -12 41.5 -16t69.5 -4l8 -8l6 -37l-4 -8q-10 0 -64.5 3.5 t-101.5 6t-64 2.5h-38q-17 0 -64 -2.5t-101.5 -6t-64.5 -3.5zM416 766q0 -53 12.5 -64.5t65.5 -11.5h108q164 0 242 76.5t78 214.5q0 123 -85 191.5t-233 68.5h-178q-10 -195 -10 -274v-201z" />
<glyph unicode="S" horiz-adv-x="1126" d="M113 104l34 220h52l10 -13q20 -241 346 -241q156 0 239 71.5t83 190.5q0 54 -21.5 98.5t-47 71t-82 54.5t-88.5 39.5t-103 34.5q-4 1 -5.5 1.5l-4.5 1.5t-5 2q-71 23 -124 45.5t-105 55t-85 70.5t-53 90.5t-20 115.5q0 93 33.5 162t94 109.5t137 59.5t171.5 19 q104 0 203.5 -20t165.5 -50l8 -22l-28 -183h-58l-10 11q-4 50 -33.5 86t-75.5 52.5t-88 23t-86 6.5q-133 0 -208.5 -59.5t-75.5 -166.5q0 -25 4.5 -46.5t11 -39.5t21.5 -34t28.5 -28t38.5 -25.5t45 -23t56.5 -22t63 -21.5t73.5 -24q70 -22 122 -43t109.5 -56t93.5 -77 t60 -104t24 -138q0 -101 -40 -176.5t-110 -119t-155.5 -64.5t-187.5 -21q-223 0 -420 101z" />
<glyph unicode="T" horiz-adv-x="1206" d="M33 1104l14 233l8 19l13 6q29 -12 169.5 -17.5t235.5 -5.5h258q96 0 237 5.5t169 17.5l12 -6l8 -19l17 -233h-50l-8 8q-10 84 -55 107q-36 22 -359 22h-22q-4 -156 -4 -391v-377q0 -201 6 -295q3 -35 13.5 -60.5t19 -35t24.5 -21.5q26 -20 131 -20l11 -8l6 -37l-4 -8 q-11 1 -62 4t-96.5 5.5t-62.5 2.5h-117q-17 0 -62 -2.5t-95 -5.5t-62 -4l-4 8l6 37l10 8q105 0 131 20q16 12 24.5 21.5t19 35t13.5 60.5q6 62 6 254v416q0 183 -6 393h-22q-325 0 -361 -22q-45 -23 -55 -107l-8 -8h-47z" />
<glyph unicode="U" horiz-adv-x="1480" d="M53 1343l4 9q12 -1 65 -4.5t100.5 -6t64.5 -2.5h39q17 0 64.5 2.5t100 6t64.5 4.5l4 -9l-6 -36l-8 -9q-83 0 -111 -20q-14 -12 -21.5 -21.5t-16.5 -35t-11 -60.5q-6 -76 -6 -311v-338q0 -215 96 -314.5t279 -99.5q376 0 376 414v338q0 235 -6 311q-6 82 -51 117 q-26 20 -108 20l-11 9l-6 36l4 9q7 0 95.5 -6.5t111.5 -6.5h45q23 0 119.5 6.5t99.5 6.5l4 -9l-6 -36l-8 -9q-82 0 -110 -20q-14 -13 -22 -22t-17 -34.5t-11 -60.5q-6 -94 -6 -313v-393q0 -102 -30.5 -188t-89.5 -151.5t-154.5 -102t-218.5 -36.5q-139 0 -242 36.5 t-163 102.5t-88 150.5t-28 188.5v393q0 250 -4 313q-2 34 -11.5 59.5t-17.5 35t-22 22.5q-28 20 -108 20l-11 9z" />
<glyph unicode="V" horiz-adv-x="1380" d="M-25 1343l2 9q8 0 94 -6.5t109 -6.5h70q17 0 65 2.5t101 6t65 4.5l4 -9l-6 -36l-10 -9q-67 0 -96 -16t-29 -70q0 -18 5 -42t17 -59.5t23 -66t31.5 -85t34.5 -93.5l139 -377q112 -310 123 -337q56 142 127 337l139 377q14 39 34.5 93.5t31.5 85t23 66t17 59.5t5 42 q0 54 -29 70t-96 16l-11 9l-4 36l4 9q4 0 99.5 -6.5t118.5 -6.5h38q23 0 109 6.5t94 6.5l4 -9l-6 -36l-10 -9q-27 0 -42 -1t-38 -8.5t-40 -21t-37.5 -40.5t-39.5 -66q-49 -112 -266 -669q-27 -68 -75 -189.5t-78 -198.5t-39 -104l-107 -23h-25l-333 930q-61 167 -99 254 q-17 40 -37 67t-36.5 40.5t-41 20.5t-39 8t-42.5 1l-10 9z" />
<glyph unicode="W" horiz-adv-x="2244" d="M-25 1343l2 9q8 0 94 -6.5t109 -6.5h70q17 0 65 2.5t101 6t65 4.5l4 -9l-6 -36l-10 -9q-67 0 -96 -16t-29 -70q0 -18 5 -42t17 -59.5t23 -66t31.5 -85t34.5 -93.5l139 -377q112 -310 123 -337q56 142 127 337l139 377q79 215 92 252q-16 42 -16 43q-29 71 -62.5 104 t-103.5 33l-10 9l-4 36l2 9q12 -1 86.5 -7t97.5 -6h68q17 0 66 2.5t103 6t66 4.5l4 -9l-6 -36l-10 -9q-51 0 -97.5 -30.5t-46.5 -79.5q0 -19 5 -29q6 -24 17 -58.5t21.5 -62.5t31 -83.5t32.5 -88.5l139 -377q17 -45 61 -168t62 -169q56 142 127 337l139 377q14 39 34.5 93.5 t31.5 85t23 66t17 59.5t5 42q0 54 -29 70t-96 16l-8 9l-6 36l4 9q4 0 99 -6.5t118 -6.5h39q23 0 108.5 6.5t93.5 6.5l5 -9l-7 -36l-10 -9q-33 0 -52 -3t-46 -15t-50.5 -41t-47.5 -78q-58 -132 -267 -669q-27 -68 -75 -189.5t-78 -198.5t-39 -104l-107 -23h-24l-357 988 q-19 -45 -184 -473q-30 -78 -75 -192t-77 -194t-40 -106l-107 -23h-25l-333 930q-61 167 -99 254q-17 40 -37 67t-36.5 40.5t-41 20.5t-39 8t-42.5 1l-10 9z" />
<glyph unicode="X" horiz-adv-x="1355" d="M-8 0v27l16 14q94 14 140.5 41.5t111.5 110.5q78 99 348 483q-117 161 -344 506q-38 54 -67 78q-35 28 -127 38l-17 9v36l13 9q102 -13 180 -13h88q103 0 227 13l10 -9v-36l-10 -9q-89 -3 -121 -24q-22 -16 -22 -35q0 -22 18 -49q115 -205 254 -410q78 100 143 210 t91 169q12 24 12 58q0 19 -7.5 32.5t-24.5 21.5t-30.5 12t-39 8.5t-35.5 6.5l-11 9v36l11 9q87 -13 188 -13h119q87 0 186 13l8 -9v-36l-8 -9q-88 -13 -138 -49t-114 -127q-208 -297 -295 -428q62 -91 165 -243.5t147 -216.5t55 -76q33 -37 52.5 -53.5t64.5 -34.5t117 -29 l18 -14v-29l-12 -12q-132 16 -215 16h-82q-84 0 -232 -16l-10 12v31l10 12q50 3 87.5 24t37.5 54q0 41 -89 186t-189 285q-241 -312 -299 -430q-9 -18 -9 -37q0 -25 9.5 -38.5t43.5 -24.5t101 -19l12 -12v-29l-12 -12q-78 12 -217 12h-96q-110 0 -201 -12z" />
<glyph unicode="Y" horiz-adv-x="1241" d="M-23 1307v36l11 9q140 -17 182 -17h86q67 0 229 17l9 -9v-36l-9 -9q-87 -3 -120 -24q-25 -18 -25 -35q0 -19 20 -49q176 -323 283 -510q69 119 152 274t102 201q21 42 21 72q0 24 -15.5 38t-33 18t-50.5 8t-47 7l-8 9v36l8 9q87 -13 189 -13h118q90 0 189 13l8 -9v-36 l-8 -9q-94 -14 -141.5 -44.5t-106.5 -118.5q-56 -83 -106.5 -163.5t-74 -120.5t-66.5 -116t-52 -92q-29 -46 -29 -102v-72q0 -197 6 -291q4 -51 17 -75.5t35 -41.5q26 -20 108 -20l10 -8l6 -37l-4 -8q-10 1 -64 4t-101 5.5t-64 2.5h-39q-17 0 -64.5 -2.5t-102.5 -6t-64 -3.5 l-2 8l4 37l10 8q83 0 109 20q45 35 51 117q6 62 6 254v80q0 79 -49 158q-129 226 -314 512q-28 45 -65 78q-35 28 -127 38z" />
<glyph unicode="Z" horiz-adv-x="1257" d="M74 10v47q80 78 269.5 343.5t348 519t158.5 299.5l-21 22h-270q-65 0 -103 -0.5t-80.5 -2.5t-65 -5t-47.5 -10t-36.5 -15.5t-23 -22.5t-17.5 -30.5t-10 -40.5l-12 -10h-37l-12 14l32 221l17 17q368 -17 663 -17h136q87 0 167 17l17 -23l-10 -51q-72 -73 -264.5 -343 t-357.5 -526t-165 -292l17 -23h151h134t109 1.5t90.5 3.5t69.5 7t56.5 10.5t40.5 15t31.5 20.5t21 27.5t17.5 34t12 42.5l12 12h55l-37 -264l-18 -20q-31 2 -230 7t-249 5h-328q-71 0 -211 -12z" />
<glyph unicode="[" horiz-adv-x="581" d="M162 -186q24 190 24 618v553q0 380 -24 541l4 8h156q23 0 116 6l94 6l3 -8l-5 -37l-10 -8q-121 0 -147 -20q-45 -35 -51 -117q-7 -89 -7 -369v-514q0 -379 7 -489q6 -82 51 -117q27 -21 147 -21l10 -8l5 -37l-3 -8l-94 6q-93 6 -116 6h-156z" />
<glyph unicode="\" horiz-adv-x="884" d="M80 1430v8h160l6 -8q31 -144 174 -543l135 -377q152 -416 252 -619l-2 -8h-160l-6 8q-45 192 -201 619l-137 377q-3 8 -27 73.5t-34.5 93t-35 90.5t-41 102.5t-39.5 91t-44 92.5z" />
<glyph unicode="]" horiz-adv-x="581" d="M47 -199l4 37l10 8q121 0 148 21q45 35 51 117q6 95 6 489v514q0 293 -6 369q-6 82 -51 117q-26 20 -148 20l-10 8l-4 37l2 8q12 -1 60 -4t91 -5.5t60 -2.5h156l4 -8q-25 -168 -25 -541v-553q0 -420 25 -618l-4 -9h-156q-17 0 -60 -2.5t-91 -5.5t-60 -4z" />
<glyph unicode="^" horiz-adv-x="712" d="M117 1161l6 15l225 202h17l225 -202l6 -15l-12 -39l-15 -6l-213 125l-213 -125l-14 6z" />
<glyph unicode="_" horiz-adv-x="911" d="M12 0h887v-106h-887v106z" />
<glyph unicode="`" horiz-adv-x="448" d="M0 1321q0 30 19 50.5t53 21.5l370 -207l7 -15l-13 -41l-16 -6l-412 158q-8 19 -8 39z" />
<glyph unicode="a" horiz-adv-x="1015" d="M76 248q0 143 127 225q64 41 175 65t176.5 28.5t113.5 4.5h28q-3 134 -24 193q-44 117 -211 117q-37 0 -71.5 -6.5t-71 -21.5t-60 -47t-27.5 -77l-8 -6h-45l-18 151l6 13q25 27 126 56.5t200 29.5q154 0 250 -80.5t96 -230.5q0 -124 -4 -275.5t-5 -226.5q8 -83 31 -101 q25 -22 113 -22l8 -8l2 -29l-2 -8q-98 8 -164 8q-77 0 -141 -6l-12 20q7 29 16 158q-60 -82 -150.5 -138.5t-193.5 -56.5q-122 0 -191 78.5t-69 192.5zM221 260q0 -77 44.5 -123.5t117.5 -46.5q78 0 161.5 48t119.5 98q20 35 22 59l10 205h-18q-457 0 -457 -240z" />
<glyph unicode="b" horiz-adv-x="1224" d="M43 0l2 29l8 8q88 0 113 22q14 13 20 34.5t11 66.5l2 18q4 102 4 301v492q0 250 -6 385q-2 32 -27 63q-30 35 -115 35l-8 8v27l8 8h37q129 0 180 8l72 11l12 -19q-7 -15 -11.5 -70t-4.5 -88q0 -26 -1 -128.5t-1 -235.5v-197q61 90 148.5 142.5t191.5 52.5 q113 0 201 -40.5t141 -109.5t80.5 -154.5t27.5 -181.5q0 -107 -28 -195t-73.5 -145.5t-105.5 -96.5t-120.5 -56t-120.5 -17q-219 0 -336 191q0 -73 21 -154l-15 -14h-94q-55 0 -211 -8zM338 360q6 -29 20.5 -62t42 -71t62.5 -67.5t88 -49.5t113 -20q78 0 138.5 33.5t97 89.5 t55 125t18.5 145q0 97 -31.5 179.5t-102.5 138t-171 55.5q-74 0 -139.5 -30t-105.5 -74t-62.5 -89t-22.5 -79v-224z" />
<glyph unicode="c" horiz-adv-x="1038" d="M88 471q0 146 70.5 261.5t190 178t263.5 62.5q89 0 178 -23t140 -51l6 -18l-23 -158h-43l-8 6q0 45 -26.5 77t-68.5 47t-81 21.5t-78 6.5q-90 0 -161.5 -33.5t-114.5 -91t-65.5 -128t-22.5 -149.5t24.5 -149.5t71.5 -126.5t124 -88.5t175 -32.5q68 0 153.5 21.5 t147.5 54.5l21 -21l-31 -57q-52 -38 -148.5 -70.5t-191.5 -32.5q-134 0 -248.5 61t-184 175.5t-69.5 257.5z" />
<glyph unicode="d" horiz-adv-x="1224" d="M96 463q0 107 28 195t73.5 145.5t105 96.5t120 56t120.5 17q225 0 342 -193v191q0 297 -6 385q-2 32 -27 63q-30 35 -115 35l-8 8v27l8 8h37q129 0 180 8l72 11l12 -19q-14 -32 -14 -158q0 -26 -2 -128.5t-2 -235.5v-447q0 -176 8 -368q8 -83 29 -101q27 -22 112 -22 l9 -8l4 -29l-4 -8q-98 8 -164 8q-76 0 -140 -6l-14 20q10 34 19 156q-59 -90 -144.5 -141.5t-189.5 -51.5q-113 0 -201 40.5t-141 109.5t-80 154.5t-27 181.5zM252 467q0 -72 18.5 -137t54.5 -118.5t96 -85.5t136 -32q72 0 135.5 28.5t103 70t63.5 85t26 78.5v228 q-5 36 -26.5 80t-59 89.5t-100.5 76t-138 30.5q-78 0 -139 -33.5t-97 -90t-54.5 -125t-18.5 -144.5z" />
<glyph unicode="e" horiz-adv-x="1075" d="M94 471q0 221 137 361.5t340 140.5q48 0 95 -8t102.5 -33t99 -64.5t79.5 -108.5t50 -159l-14 -49l-33 -14q-73 0 -227 -2.5t-229 -2.5h-242q-2 -18 -2 -53q0 -80 23 -148.5t69.5 -123.5t125.5 -86t183 -31q163 0 271 62l20 -13v-37l-20 -22q-55 -43 -146 -73t-194 -30 q-216 0 -352 137.5t-136 356.5zM262 616h80q187 0 434 13q45 3 45 43q0 19 -8 43q-24 78 -86 122t-154 44q-124 0 -206 -75.5t-105 -189.5z" />
<glyph unicode="f" horiz-adv-x="688" d="M76 0l2 29l8 8q88 0 113 22q26 24 31.5 92.5t5.5 327.5v367h-152l-8 10v68l8 8h152v117q0 222 83.5 349.5t237.5 127.5q102 0 217 -62l10 -20l-24 -158h-53q-7 63 -59 101t-120 38q-26 0 -47 -5.5t-36.5 -13t-27.5 -23t-19.5 -28t-13 -35.5t-8 -38t-4 -43.5t-1.5 -43.5 v-46v-217h260l10 -8v-68l-10 -10h-260v-318q0 -267 8 -368q8 -83 31 -101q32 -22 145 -22l10 -10l4 -27l-4 -8q-156 8 -225 8h-49q-57 0 -213 -8z" />
<glyph unicode="g" horiz-adv-x="1005" d="M72 -227q0 84 56 151.5t146 100.5q-98 42 -98 114q0 49 34.5 79.5t100.5 60.5q-106 40 -157.5 125.5t-51.5 197.5q0 159 98.5 264t270.5 105q100 0 180 -39h301l11 -8v-68l-11 -10h-192q92 -112 92 -254q0 -69 -23 -129t-68 -107t-118.5 -74.5t-167.5 -27.5 q-12 0 -33.5 1t-31.5 1q-31 -13 -50.5 -37t-19.5 -43q0 -43 117 -57l166 -21q144 -16 232.5 -86t88.5 -190q0 -63 -27 -123.5t-79 -104.5q-124 -102 -349 -102q-106 0 -188 24t-131 64t-73.5 89t-24.5 104zM199 -205q0 -79 80 -127.5t223 -48.5q138 0 222.5 47.5t84.5 134.5 q0 149 -274 179l-105 10q-108 -4 -169.5 -63t-61.5 -132zM248 610q0 -110 58.5 -190t172.5 -80q108 0 165.5 72.5t57.5 179.5q0 72 -23.5 135.5t-78.5 108.5t-133 45q-57 0 -100.5 -24t-68.5 -64t-37.5 -86.5t-12.5 -96.5z" />
<glyph unicode="h" horiz-adv-x="1220" d="M43 0l2 29l8 8q88 0 113 22q25 23 31 101q6 105 6 319v492q0 253 -6 385q-2 32 -27 63q-30 35 -115 35l-8 8v27l8 8h37q129 0 180 8l72 11l12 -19q-12 -28 -12 -158q0 -26 -3 -128.5t-3 -235.5v-217q124 215 350 215q82 0 153 -29t124.5 -95t64.5 -159q8 -72 8 -233v-289 q0 -82 31 -109q27 -22 115 -22l6 -8l4 -29l-4 -8q-94 8 -162 8q-76 0 -141 -6l-15 20q15 51 19 146q8 151 8 307q0 126 -16 199q-20 92 -83 141t-149 49q-64 0 -125 -29.5t-100.5 -72t-63.5 -87.5t-24 -77q0 -238 8 -430q8 -81 31 -101q28 -22 106 -22l11 -10l4 -27l-4 -8 q-156 8 -209 8h-29q-55 0 -211 -8z" />
<glyph unicode="i" horiz-adv-x="567" d="M68 0l2 29l8 8q87 0 112 22q14 13 20 34.5t11 66.5q6 68 6 174v252q0 122 -6 205q-6 43 -26 63q-29 35 -115 35l-8 8v29l8 6h37q129 0 180 8l72 10l12 -18q-14 -32 -14 -154q0 -13 -2.5 -67t-2.5 -123v-230q0 -70 9 -198q3 -44 9 -66t21 -35q28 -22 107 -22l10 -10l4 -27 l-4 -8q-156 8 -209 8h-28q-55 0 -211 -8zM174 1292q0 40 28.5 70.5t67.5 30.5q40 0 70.5 -30.5t30.5 -70.5q0 -39 -30.5 -67.5t-70.5 -28.5t-68 28t-28 68z" />
<glyph unicode="j" horiz-adv-x="512" d="M-23 -489l9 10q48 0 77.5 9t57.5 40q42 46 58 119.5t18 183.5q6 159 6 545q0 276 -6 370q-3 42 -27 66q-29 35 -115 35l-8 8v29l8 6h37q129 0 180 8l72 10l10 -18q-4 -12 -12 -158q-4 -98 -4 -299v-483q0 -198 -69.5 -339.5t-196.5 -178.5q-27 -6 -74 -6l-16 4zM150 1292 q0 40 28.5 70.5t67.5 30.5q40 0 70 -30.5t30 -70.5q0 -39 -30 -67.5t-70 -28.5t-68 28t-28 68z" />
<glyph unicode="k" horiz-adv-x="1077" d="M43 0l2 29l8 8q88 0 113 22q25 23 31 101q6 105 6 319v492q0 253 -6 385q-2 32 -27 63q-30 35 -115 35l-8 8v27l8 8h37q129 0 180 8l72 11l12 -19q-12 -28 -12 -158q0 -26 -3 -128.5t-3 -235.5v-488l244 226q3 3 27.5 25.5t47.5 44.5t29 30q19 22 19 37q0 35 -95 49l-8 8 v25l8 8q102 -12 158 -12h57q54 0 160 12l6 -8v-29l-10 -10q-5 -1 -22 -4.5t-28 -6t-25.5 -7.5t-24.5 -11q-105 -65 -256 -211l-84 -78q48 -72 75 -104l183 -225q7 -9 31.5 -39.5t34.5 -42.5t32 -36.5t37.5 -35.5t38 -25.5t45.5 -21t49 -8.5l6 -8l4 -29l-4 -8q-47 -6 -164 -6 q-57 0 -108 51q-80 80 -107 113l-164 210q-64 83 -98 117q-26 -24 -44.5 -42.5t-31.5 -32.5t-18 -19q0 -71 8 -223q3 -75 31 -101q28 -22 106 -22l11 -10l4 -27l-4 -8q-156 8 -209 8h-29q-55 0 -211 -8z" />
<glyph unicode="l" horiz-adv-x="563" d="M55 0l2 29l9 8q87 0 112 22q25 23 31 101q6 105 6 319v492q0 297 -6 385q-2 32 -27 63q-30 35 -114 35l-9 8v27l9 8h36q130 0 181 8l73 11l13 -19q-6 -14 -15 -158q-6 -88 -6 -364v-447q0 -176 8 -368q8 -81 31 -101q28 -22 107 -22l10 -10l4 -27l-4 -8q-156 8 -209 8 h-29q-55 0 -211 -8z" />
<glyph unicode="m" horiz-adv-x="1890" d="M68 0l2 29l8 8q87 0 112 22q14 13 20 34.5t11 66.5q6 68 6 174v252q0 122 -6 205q-6 43 -26 63q-29 35 -115 35l-8 8v29l8 6h37q129 0 180 8l72 10l12 -18q-12 -28 -12 -158q0 -1 -1 -3t-1 -3q52 95 128 150t193 55q114 0 204.5 -58t125.5 -174q22 40 43 71t51.5 62.5 t64 52t79 33.5t98.5 13q128 0 223.5 -71t120.5 -214q12 -72 12 -231v-297q0 -77 31 -101q25 -22 112 -22l9 -8l4 -29l-4 -8q-98 8 -164 8q-74 0 -139 -6l-15 20q15 51 19 146q6 120 6 317q0 128 -17 209q-20 81 -81 125.5t-142 44.5q-104 0 -183 -68.5t-108 -150.5 q6 -59 6 -180v-297q0 -75 33 -101q28 -22 107 -22l10 -10l4 -27l-4 -8q-156 8 -209 8h-29q-55 0 -211 -8l-4 8l4 29l9 8q87 0 112 22q14 13 20 35t9 66q8 160 8 317q0 152 -16 209q-23 81 -83 125.5t-140 44.5q-64 0 -122.5 -29.5t-96.5 -72t-60.5 -87.5t-22.5 -79v-230 q0 -70 9 -198q3 -44 9 -66t21 -35q28 -22 107 -22l10 -10l4 -27l-4 -8q-156 8 -209 8h-28q-55 0 -211 -8z" />
<glyph unicode="n" horiz-adv-x="1245" d="M68 0l2 29l8 8q87 0 112 22q14 13 20 34.5t11 66.5q6 68 6 174v252q0 150 -6 205q-6 43 -26 63q-29 35 -115 35l-8 8v29l8 6h37q129 0 180 8l72 10l12 -18q-7 -23 -10 -51.5t-3.5 -69t-0.5 -45.5q124 207 346 207q128 0 226 -72.5t116 -212.5q8 -72 8 -231 q0 -49 1 -148.5t1 -148.5q8 -83 29 -101q28 -22 114 -22l6 -8l5 -29l-5 -8q-94 8 -161 8q-77 0 -142 -6l-14 20q13 47 18 146q9 170 9 307q0 121 -17 199q-20 92 -82.5 141t-148.5 49q-65 0 -125.5 -29t-100.5 -70.5t-64 -86.5t-24 -80v-232q0 -112 9 -198q5 -47 10.5 -67.5 t19.5 -33.5q28 -22 107 -22l10 -10l4 -27l-4 -8q-156 8 -209 8h-28q-55 0 -211 -8z" />
<glyph unicode="o" horiz-adv-x="1193" d="M92 475q0 101 35 191t98.5 158.5t159.5 108.5t211 40q118 0 215 -42t160 -113t97 -162t34 -191q0 -96 -32 -182t-92.5 -155t-158 -110t-219.5 -41q-125 0 -224.5 42.5t-160 113.5t-92 158.5t-31.5 183.5zM246 479q0 -76 24 -150.5t67.5 -135.5t112 -98.5t148.5 -37.5 q84 0 151 34.5t109 92.5t64 130.5t22 150.5q0 76 -24 150t-67.5 135.5t-112 99t-150.5 37.5q-86 0 -153.5 -35.5t-108 -94.5t-61.5 -130t-21 -148z" />
<glyph unicode="p" horiz-adv-x="1222" d="M41 -526l2 30l8 7q89 0 113 24q25 20 31 98q6 105 6 310v477q0 239 -6 371q-3 39 -27 63q-29 35 -115 35l-8 8v29l8 6h37q129 0 180 8l72 10l12 -18q-12 -24 -12 -146q61 87 147 137t187 50q113 0 201 -40.5t141 -109.5t80.5 -154.5t27.5 -181.5q0 -107 -28 -195 t-73.5 -145.5t-105.5 -96.5t-120.5 -56t-120.5 -17q-226 0 -342 201v-188q0 -169 8 -357q5 -45 11 -66t20 -32q28 -24 106 -24l11 -9l4 -28l-4 -6q-20 0 -105 3t-104 3h-29q-20 0 -106 -3t-105 -3zM336 367q5 -28 18.5 -62t40.5 -72.5t63 -70t89.5 -52t114.5 -20.5 q78 0 138.5 33.5t97 89.5t55 125t18.5 145q0 97 -31.5 179.5t-102.5 138t-171 55.5q-72 0 -136 -28.5t-104 -71t-64 -86t-26 -78.5v-225z" />
<glyph unicode="q" horiz-adv-x="1222" d="M96 463q0 107 28 195t73.5 145.5t105 96.5t120 56t120.5 17q219 0 338 -182q0 109 -13 141l13 18l71 -10q49 -8 178 -8h37l9 -6v-29l-9 -8q-41 0 -67.5 -6.5t-46.5 -28.5q-22 -22 -25 -63q-8 -133 -8 -369v-432q0 -169 8 -357q5 -45 11 -66t20 -32q28 -24 106 -24l11 -9 l4 -28l-4 -6q-20 0 -104.5 3t-104.5 3h-29q-20 0 -106 -3t-105 -3l-2 6l2 30l8 7q89 0 113 24q25 20 31 98q6 70 6 310v235q-61 -93 -148 -147t-192 -54q-113 0 -201 40.5t-141 109.5t-80 154.5t-27 181.5zM252 467q0 -72 18.5 -137t54.5 -118.5t96 -85.5t136 -32 q72 0 136 28.5t103.5 71t63 86t25.5 78.5v226q-5 36 -26.5 80t-59 89.5t-100.5 76t-138 30.5q-78 0 -139 -33.5t-97 -90t-54.5 -125t-18.5 -144.5z" />
<glyph unicode="r" horiz-adv-x="833" d="M68 0l2 29l8 8q87 0 112 22q14 13 20 34.5t11 66.5l2 18q4 54 4 156v252q0 122 -6 205q-6 43 -26 63q-29 35 -115 35l-8 8v29l8 6h37q129 0 180 8l72 10l12 -18q-16 -57 -16 -207q23 43 36.5 66.5t42.5 63.5t54 61.5t63 39t78 17.5t84.5 -11.5t60.5 -29.5l17 -19 l-25 -157h-67q-7 32 -34 53.5t-77 21.5q-64 0 -120.5 -50.5t-86 -116.5t-29.5 -123v-183q0 -44 7 -180l2 -18q3 -30 4.5 -42.5t8 -31.5t17.5 -27q32 -22 146 -22l10 -10l4 -27l-4 -8q-156 8 -225 8h-49q-57 0 -213 -8z" />
<glyph unicode="s" horiz-adv-x="899" d="M102 70l31 211h47l6 -9q0 -98 62.5 -154.5t177.5 -56.5q66 0 116 16.5t76.5 44t39 56.5t12.5 60q0 26 -3 43.5t-15.5 44.5t-44 48t-81.5 34l-196 49q-224 57 -224 241q0 132 95.5 203.5t244.5 71.5q87 0 169.5 -22.5t134.5 -51.5l6 -18l-23 -158h-43l-8 6q0 45 -25 79 t-64 52t-77 26.5t-72 8.5q-96 0 -144 -48t-48 -118q0 -117 156 -154l145 -32q66 -15 115.5 -39t77.5 -50.5t45 -59t22.5 -59.5t5.5 -56q0 -133 -105 -217.5t-282 -84.5q-92 0 -180 22t-146 52z" />
<glyph unicode="t" horiz-adv-x="671" d="M55 856v68l8 8h148q0 136 -10 293l14 12l29 2q76 8 104 23l19 -9q-23 -122 -23 -321h266l11 -8v-68l-11 -10h-266q0 -156 -1 -308.5t-2 -241.5t-1 -93q0 -133 102 -133q35 0 80.5 13t75.5 30l18 -15l-26 -49q-88 -72 -201 -72q-98 0 -144 55t-46 150q0 15 2.5 108 t5.5 247.5t4 308.5h-148z" />
<glyph unicode="u" horiz-adv-x="1220" d="M35 897v29l6 6h37q129 0 180 8l72 10l12 -18q-12 -28 -12 -158q0 -48 -3 -161t-3 -148q0 -126 16 -199q20 -92 82.5 -141t148.5 -49q60 0 115.5 24.5t94.5 62.5t65 79t35 77v267q0 81 -9 205q-6 45 -24 63q-29 35 -115 35l-8 8v29l8 6h37q129 0 178 8l72 10l12 -18 q-12 -28 -12 -158q0 -13 -2 -65t-2 -121v-230q0 -27 6 -198q8 -83 31 -101q25 -22 112 -22l9 -8l4 -29l-4 -8q-98 8 -164 8q-78 0 -142 -6l-12 20q3 12 18 162q-125 -199 -339 -199q-130 0 -222 63t-118 206q-4 25 -6.5 56t-3 54t-1 61.5t-0.5 57.5q-2 72 -2 316 q0 33 -26 65q-29 33 -115 33z" />
<glyph unicode="v" horiz-adv-x="1054" d="M-2 903v29l8 8q90 -12 146 -12h79q60 0 166 12l9 -8v-25l-9 -8q-104 -11 -104 -80q0 -58 141 -432l101 -266l98 235q2 4 23 56t32 80t31.5 83.5t31.5 92.5t20 80t9 71q0 40 -29 57.5t-77 22.5l-8 8v25l8 8q79 -12 149 -12h84q40 0 142 12l8 -8v-29l-13 -10 q-36 -5 -61.5 -21.5t-46.5 -52.5q-27 -44 -66 -134.5t-69.5 -170t-61 -161t-34.5 -91.5l-105 -262l-129 -10l-20 10l-123 328q-8 22 -37 94t-69 170.5t-60 148.5q-18 46 -37 78q-21 34 -47.5 52t-67.5 22z" />
<glyph unicode="w" horiz-adv-x="1677" d="M-2 903v29l8 8q90 -12 146 -12h79q60 0 166 12l9 -8v-25l-9 -8q-104 -11 -104 -80q0 -22 20.5 -89.5t42.5 -129t49.5 -135.5t28.5 -78l101 -266l98 235q3 7 20 48t27.5 66t28.5 71.5t29.5 80.5t23 74.5t16.5 71.5q-7 27 -12.5 40.5t-18 35t-33.5 33.5t-52 16l-13 10v29 l8 8q90 -12 127 -12h80q70 0 146 12l8 -8v-25l-8 -8q-90 -9 -90 -80q0 -22 20.5 -89.5t42.5 -129t49.5 -135.5t28.5 -78l100 -266l99 235q2 4 23 56t32 80t31.5 83.5t31.5 92.5t20 80t9 71q0 40 -29 57.5t-78 22.5l-8 8v25l8 8q82 -12 150 -12h84q33 0 139 12l6 -8v-29 l-10 -10q-38 -5 -63.5 -21.5t-46.5 -52.5q-35 -57 -86 -180.5t-96 -244t-50 -132.5l-104 -262l-125 -10l-19 10l-241 623q-25 -64 -57 -148t-53 -140.5t-28 -72.5l-104 -262l-125 -10l-20 10l-123 328q-7 20 -36 91.5t-69.5 171t-60.5 150.5q-18 46 -37 78q-21 34 -47.5 52 t-67.5 22z" />
<glyph unicode="x" horiz-adv-x="1075" d="M29 0v29l12 10q65 11 95.5 29.5t74.5 74.5q173 227 250 340q-15 20 -66 89t-96 128t-92 119q-53 66 -135 74l-13 10v29l9 8q90 -12 153 -12h80q52 0 158 12l8 -8v-25l-8 -8q-49 -4 -75 -16t-26 -43q0 -33 195 -289q73 91 127.5 176.5t54.5 103.5q0 37 -15 48.5t-65 19.5 l-8 8v25l8 8q82 -12 131 -12h84q38 0 144 12l8 -8v-29l-12 -10q-67 -9 -107 -33t-80 -82q-37 -52 -107 -147t-110 -152q59 -80 122 -161t101.5 -129.5t42.5 -51.5q33 -43 69.5 -67.5t96.5 -32.5l13 -10v-29l-9 -8q-90 12 -153 12h-80q-54 0 -160 -12l-8 8v25l8 8 q35 1 59.5 15.5t24.5 31.5q0 23 -41.5 89t-171.5 241q-89 -107 -157 -198.5t-68 -109.5q0 -31 23.5 -45t74.5 -22l8 -8v-25l-8 -8q-55 8 -129 8h-84q-75 0 -143 -8z" />
<glyph unicode="y" horiz-adv-x="1052" d="M-2 903v29l8 8q90 -12 146 -12h79q60 0 166 12l9 -8v-25l-9 -8q-104 -11 -104 -80q0 -28 33.5 -131t61 -178t46.5 -123l103 -266l96 235q2 4 23 56t32 80t31.5 83.5t31.5 92.5t20 80t9 71q0 40 -29 57.5t-77 22.5l-8 8v25l8 8q79 -12 149 -12h84q35 0 137 12l9 -8v-29 l-11 -10q-36 -4 -55.5 -20t-42.5 -54q-26 -44 -65 -134.5t-69.5 -169.5t-61.5 -161t-35 -92l-201 -500q-50 -125 -136.5 -191t-205.5 -97q-27 -6 -74 -6l-16 4l-4 49l8 10q69 0 111.5 14t93.5 66q72 75 114 180l66 166l-141 371q-5 12 -70.5 174t-95.5 239q-18 46 -37 78 q-21 34 -47.5 52t-67.5 22z" />
<glyph unicode="z" horiz-adv-x="999" d="M80 8v29q58 57 186.5 236t237 354.5t108.5 214.5l-14 14h-184q-105 0 -157 -15t-69 -41t-28 -85l-8 -8h-35l-15 10l17 215l6 12q242 -12 545 -12h92q70 0 119 12l12 -16l-6 -33q-79 -81 -306 -416.5t-227 -374.5l11 -14h98q68 0 109.5 0.5t83.5 4t64 6.5t45.5 13t34 19 t23.5 28.5t20.5 37t18.5 49.5l6 8h45l-32 -244l-11 -20q-9 0 -240.5 4t-260.5 4h-66q-111 0 -209 -8z" />
<glyph unicode="{" horiz-adv-x="555" d="M59 659v21q30 1 54 13t39.5 28t26.5 43t16 49t8 55t3.5 52t0.5 49q0 44 -2 158t-2 139q0 71 10 119t38 89.5t84 61.5t142 20l4 -22q-50 -5 -82 -24t-47 -53t-19.5 -67.5t-4.5 -84.5q0 -23 2 -138.5t2 -154.5q0 -68 -9 -121t-30 -100t-60 -77.5t-94 -43.5q55 -13 94 -43.5 t60 -77.5t30 -100t9 -121q0 -39 -2 -154.5t-2 -138.5q0 -40 2.5 -68t11.5 -59t25 -50.5t45 -34t69 -18.5l-4 -22q-69 0 -119 14.5t-79.5 38t-47 62.5t-23 79.5t-5.5 96.5q0 27 2 144.5t2 158.5q0 30 -0.5 50t-3.5 52t-8.5 53.5t-16.5 47t-26 41t-39 26.5t-54 12z" />
<glyph unicode="|" horiz-adv-x="483" d="M162 -225q24 190 24 618v631q0 380 -24 541l2 8h155l5 -8q-25 -168 -25 -541v-631q0 -420 25 -618l-5 -8h-155z" />
<glyph unicode="}" horiz-adv-x="550" d="M72 -195q50 5 82.5 24.5t47.5 53t20 68t5 84.5q0 23 -2 138.5t-2 154.5q0 68 9 121t30 100t60 77.5t94 43.5q-55 13 -94 43.5t-60 77.5t-30 100t-9 121q0 39 2 154.5t2 138.5q0 40 -2.5 68t-12 58.5t-26 50t-45.5 34t-69 18.5l4 22q86 0 142 -20t84 -61.5t38 -89.5 t10 -119q0 -25 -1 -139t-1 -158q0 -36 1 -58t4.5 -60.5t13 -63.5t25 -51.5t41.5 -40.5t61 -15v-21q-30 -1 -53.5 -12.5t-39 -26.5t-26 -41t-16 -46.5t-8 -53.5t-3 -51.5t-0.5 -50.5q0 -41 1 -158.5t1 -144.5q0 -56 -5.5 -96.5t-23 -79.5t-47 -62.5t-79.5 -38t-119 -14.5z " />
<glyph unicode="~" horiz-adv-x="980" d="M135 414q0 41 54.5 99t132.5 58q29 0 164.5 -9t201.5 -9q95 0 133 53l25 -16q0 -7 -6 -23.5t-20.5 -40t-34 -44.5t-51.5 -35.5t-68 -14.5q-25 0 -185 9.5t-207 9.5t-67.5 -11.5t-44.5 -40.5z" />
<glyph unicode="&#xa1;" horiz-adv-x="477" d="M141 879q0 38 28.5 66t68.5 28q37 0 66.5 -28t29.5 -66t-29.5 -68.5t-66.5 -30.5q-39 0 -68 30t-29 69zM145 -383q1 8 5.5 57t8 109t9 166t11.5 283t11 405l13 8l71 -35l11 -12q7 -296 15 -502.5t12.5 -278.5t10.5 -135t7 -71q0 -4 1 -25t1 -35l-10 -6l-168 54z" />
<glyph unicode="&#xa2;" horiz-adv-x="1038" d="M78 434q0 193 122.5 313.5t311.5 143.5q-3 153 -20 283l4 8h155l4 -8q-15 -91 -22 -279q85 -4 163 -25.5t124 -46.5l6 -18l-23 -158h-43l-8 6q0 40 -20.5 70t-55.5 46t-70 23.5t-75 10.5q-2 -98 -2 -248v-170q0 -197 2 -301q152 3 299 76l20 -21l-30 -57 q-117 -81 -285 -100q7 -158 20 -254l-4 -9h-155l-4 9q13 98 20 254q-89 9 -166.5 42.5t-137.5 89t-95 138t-35 182.5zM233 446q0 -139 71.5 -233t207.5 -121q4 204 4 293v170q0 146 -2 244q-137 -22 -209 -118.5t-72 -234.5z" />
<glyph unicode="&#xa3;" horiz-adv-x="1073" d="M82 23v47q127 99 176 199.5t49 219.5q0 64 -19.5 218.5t-19.5 228.5q0 197 95.5 311.5t267.5 114.5q102 0 196.5 -49t141.5 -156l-27 -186h-55l-8 8q-12 140 -64 207t-160 67q-63 0 -107 -21.5t-69 -63t-36 -94t-11 -120.5q0 -52 11.5 -197.5t11.5 -226.5q0 -76 -8 -139 t-27.5 -122t-56 -102.5t-89.5 -68.5l5 -6q102 -8 197 -16.5t139.5 -12.5t60.5 -4q50 0 83 6t53.5 14t35 29.5t21.5 39t18 55.5l10 12h55l-75 -285l-19 -20q-83 46 -306.5 69t-449.5 23zM96 553l41 86h619l-21 -86h-639z" />
<glyph unicode="&#xa4;" horiz-adv-x="1212" d="M125 883l61 61l164 -162q123 90 254 90q138 0 252 -90l166 160l61 -59l-161 -164q90 -120 90 -252q0 -130 -88 -248l163 -164l-63 -61l-166 162q-123 -93 -250 -93q-121 0 -254 93l-164 -162l-59 61l160 164q-90 112 -90 252q0 134 92 248zM303 469q0 -127 88.5 -216 t216.5 -89q126 0 213.5 88.5t87.5 216.5q0 127 -88 216t-215 89q-125 0 -214 -88.5t-89 -216.5z" />
<glyph unicode="&#xa5;" horiz-adv-x="1425" d="M63 1307v36l11 9q140 -17 182 -17h86q68 0 229 17l9 -9v-36l-9 -9q-87 -3 -120 -24q-25 -18 -25 -35q0 -19 20 -49q176 -323 283 -510q69 119 152 274t102 201q21 42 21 72q0 24 -15.5 38t-33 18t-50.5 8t-47 7l-8 9v36l8 9q87 -13 189 -13h118q90 0 189 13l8 -9v-36 l-8 -9q-94 -14 -141.5 -44.5t-106.5 -118.5q-145 -214 -256 -416h276v-90h-327q-21 -42 -21 -109h348v-90h-348q0 -166 6 -252q4 -51 17 -75.5t35 -41.5q26 -20 108 -20l10 -8l7 -37l-5 -8q-10 1 -64 4t-101 5.5t-64 2.5h-39q-17 0 -64.5 -2.5t-102.5 -6t-64 -3.5l-2 8l4 37 l10 8q83 0 109 20q45 35 51 117q6 62 6 252h-348v90h348q-2 46 -25 109h-323v90h272q-160 271 -287 463q-28 45 -65 78q-35 28 -127 38z" />
<glyph unicode="&#xa6;" horiz-adv-x="499" d="M170 -225q16 130 20.5 201t4.5 184v65q0 158 -25 328l2 8h156l4 -8q-25 -170 -25 -328v-65q0 -113 4.5 -184t20.5 -201l-4 -8h-156zM170 786q16 130 20.5 201t4.5 184v68q0 158 -25 326l2 8h156l4 -8q-25 -168 -25 -326v-68q0 -113 4.5 -184t20.5 -201l-4 -8h-156z" />
<glyph unicode="&#xa7;" horiz-adv-x="866" d="M102 690q0 75 26.5 133t96.5 142q-43 65 -43 151q0 128 99.5 231t232.5 103q95 0 166 -57l4 -17l-88 -166h-10q-24 55 -71 86t-97 31q-53 0 -87 -31.5t-34 -91.5q0 -42 28.5 -86.5t60 -72.5t85 -70.5t72.5 -59.5q118 -106 172.5 -187t54.5 -155q0 -108 -135 -249 q22 -52 22 -107q0 -149 -85.5 -244.5t-211.5 -95.5q-52 0 -92.5 19t-91.5 65l-2 12l102 138l7 -2q14 -56 55.5 -85.5t89.5 -29.5q55 0 95 32t40 87q0 20 -6.5 39.5t-23 40.5t-29.5 36t-42 38t-44.5 35t-52 38.5t-50.5 36.5q-128 98 -170.5 166t-42.5 147zM199 795 q0 -33 26.5 -71.5t112.5 -118.5t256 -220q39 31 51 56t12 69q0 43 -23 77t-97 100t-269 224q-69 -66 -69 -116z" />
<glyph unicode="&#xa8;" horiz-adv-x="450" d="M0 1292q0 37 24.5 64.5t59.5 27.5q34 0 60 -27.5t26 -64.5q0 -38 -26 -64t-60 -26q-35 0 -59.5 26t-24.5 64zM281 1292q0 37 24.5 64.5t59.5 27.5q34 0 60 -27.5t26 -64.5q0 -38 -26 -64t-60 -26q-35 0 -59.5 26t-24.5 64z" />
<glyph unicode="&#xa9;" horiz-adv-x="1476" d="M117 725q0 166 82.5 307.5t225.5 224t312 82.5t312.5 -82.5t227 -224t83.5 -307.5q0 -170 -84 -312.5t-229.5 -224.5t-319.5 -82q-123 0 -236 49.5t-195 133t-130.5 198t-48.5 238.5zM188 725q0 -113 43.5 -216.5t116 -178.5t172.5 -119.5t209 -44.5q154 0 282.5 74 t202.5 202.5t74 282.5q0 150 -74 278t-201 202.5t-276 74.5t-275.5 -74.5t-200 -202.5t-73.5 -278zM389 723q0 153 94.5 253.5t264.5 100.5q125 0 221 -39l2 -14l-17 -102h-55l-12 10q-4 26 -28 43t-53.5 23t-64.5 6q-92 0 -147 -43q-41 -36 -63.5 -98.5t-22.5 -135.5 q0 -131 70 -203.5t180 -72.5q117 0 207 67l18 -29l-25 -57q-96 -55 -215 -55q-159 0 -256.5 96t-97.5 250z" />
<glyph unicode="&#xaa;" horiz-adv-x="700" d="M86 924q0 37 15.5 67.5t39.5 50t58 33.5t65 21.5t67 11.5t57 5t42 1q-3 103 -28 135.5t-80 32.5q-125 0 -134 -84l-4 -6h-32l-11 94l4 8q14 16 77.5 35t123.5 19q87 0 131.5 -48t44.5 -139q0 -76 -2 -163.5t-2 -131.5q0 -29 13 -43.5t28 -17t43 -2.5l4 -37q-58 4 -98 4 q-15 0 -46.5 -1t-43.5 -1l-8 10q5 20 10 94q-81 -116 -168 -116q-73 0 -119.5 48.5t-46.5 119.5zM182 932q0 -48 25.5 -72t66.5 -24q40 0 78 22.5t58 52.5q14 19 14 35l6 111q-46 0 -78 -2t-66.5 -9.5t-55.5 -20.5t-34.5 -36.5t-13.5 -56.5z" />
<glyph unicode="&#xab;" horiz-adv-x="954" d="M84 492q191 239 270 362l15 8h118l11 -20q-143 -145 -287 -350q150 -210 287 -349l-11 -20h-118l-15 8q-85 132 -270 361zM414 492q197 244 270 362l16 8h119l10 -20q-139 -142 -286 -350q153 -214 286 -349l-10 -20h-119l-16 8q-78 126 -270 361z" />
<glyph unicode="&#xac;" horiz-adv-x="1290" d="M154 592v106h983v-458h-109v352h-874z" />
<glyph unicode="&#xad;" horiz-adv-x="964" d="M137 436l19 107h673l-20 -107h-672z" />
<glyph unicode="&#xae;" horiz-adv-x="1476" d="M117 725q0 166 82.5 307.5t225.5 224t312 82.5t312.5 -82.5t227 -224t83.5 -307.5q0 -170 -84 -312.5t-229.5 -224.5t-319.5 -82q-123 0 -236 49.5t-195 133t-130.5 198t-48.5 238.5zM188 725q0 -113 43.5 -216.5t116 -178.5t172.5 -119.5t209 -44.5q154 0 282.5 74 t202.5 202.5t74 282.5q0 150 -74 278t-201 202.5t-276 74.5t-275.5 -74.5t-200 -202.5t-73.5 -278zM457 412l2 32q21 1 36 6t24.5 18t14.5 24t7.5 38t3 46t0.5 61v272q0 66 -17 101.5t-69 38.5v41h246q249 0 249 -177q0 -75 -48 -122.5t-118 -67.5q33 -45 47 -64t46 -60.5 t52 -62t47 -45.5t50 -36t43 -11v-32q-24 0 -42 -2t-25 -2q-73 0 -115.5 40t-148.5 194q-31 44 -48 69h-63q0 -162 16.5 -215.5t69.5 -53.5l4 -30h-264zM631 801q0 -14 6.5 -20.5t12.5 -7.5t18 -1h55q71 0 106 35t35 100q0 56 -37.5 88.5t-101.5 32.5h-94v-227z" />
<glyph unicode="&#xb0;" horiz-adv-x="667" d="M84 1112q0 101 66 168.5t182 67.5q119 0 185.5 -69t66.5 -173q0 -97 -64.5 -162t-187.5 -65t-185.5 67t-62.5 166zM170 1114q0 -74 43 -124t119 -50q79 0 120.5 46t41.5 120t-42.5 124t-121.5 50q-80 0 -120 -47t-40 -119z" />
<glyph unicode="&#xb1;" horiz-adv-x="976" d="M162 143l18 109h635l-20 -109h-633zM162 610l18 109h254v213h107v-213h274l-20 -109h-254v-235h-107v235h-272z" />
<glyph unicode="&#xb2;" horiz-adv-x="700" d="M111 633v24q23 30 131.5 149.5t172.5 211t64 151.5q0 115 -129 115q-150 0 -162 -154h-47l-12 111q30 52 86.5 86.5t140.5 34.5q219 0 219 -191q0 -54 -31.5 -116t-77 -115.5t-90.5 -101t-76.5 -85t-31.5 -55.5h68q50 0 77 0.5t54 4.5t38.5 9t24 17t18.5 26.5t13 39.5h29 l-19 -164l-10 -10q-6 0 -99.5 3t-115.5 3h-110q-15 0 -34 -1t-43.5 -2.5t-37.5 -2.5z" />
<glyph unicode="&#xb3;" horiz-adv-x="667" d="M98 735l13 90h43q8 -78 53 -113.5t110 -35.5q72 0 123.5 42.5t51.5 119.5q0 63 -39.5 109t-110.5 46h-31l13 43q60 1 95.5 44t35.5 98q0 58 -41.5 89t-98.5 31q-58 0 -99.5 -32.5t-41.5 -94.5q0 -12 2 -20h-45l-10 90q18 35 37.5 58t63 43t102.5 20q99 0 159 -53t60 -127 q0 -102 -109 -158q72 -16 109 -64t37 -110q0 -92 -74 -167t-189 -75q-139 0 -219 127z" />
<glyph unicode="&#xb4;" horiz-adv-x="448" d="M0 1171l6 15l369 207q34 -1 54 -21.5t20 -50.5q0 -18 -9 -39l-413 -158l-15 6z" />
<glyph unicode="&#xb5;" horiz-adv-x="1306" d="M92 897v29l6 6h37q129 0 180 8l72 10l12 -18q-12 -28 -12 -158q0 -48 -3 -161t-3 -148q0 -126 16 -199q20 -92 83 -141t149 -49q60 0 115.5 24.5t94 62.5t64.5 79t35 77v267q0 132 -8 205q-6 44 -25 63q-29 35 -114 35l-9 8v29l9 6h36q130 0 179 8l71 10l13 -18 q-13 -30 -13 -158q0 -13 -2 -65t-2 -121v-230q0 -27 6 -198q8 -83 31 -101q25 -22 113 -22l8 -8l4 -29l-4 -8q-98 8 -164 8q-77 0 -141 -6l-13 20q5 20 19 162q-125 -199 -340 -199q-74 0 -150 27t-100 84l-6 -4q-22 -238 -47 -340l-10 -12h-19q-95 0 -131 51v12 q50 98 81.5 247.5t31.5 242.5v200q0 195 -6 306q-3 40 -23 65q-29 33 -115 33z" />
<glyph unicode="&#xb6;" horiz-adv-x="1099" d="M74 1010q0 136 90.5 233.5t218.5 97.5q18 0 95.5 -1t109.5 -1h211q34 0 107.5 6.5t80.5 6.5l4 -9l-6 -36l-10 -9q-76 0 -109 -20q-14 -11 -22 -21t-16.5 -34.5t-12.5 -61.5q-6 -68 -6 -196v-533q0 -445 6 -506q11 -95 51 -119q28 -20 109 -20l10 -6l6 -37l-4 -8 q-97 10 -229 10h-176q-132 0 -230 -10l-4 8l6 37l11 6q48 0 67.5 5t40.5 18q45 33 51 116q4 82 4 436v216q-64 0 -122 10.5t-120.5 39.5t-108 75.5t-74.5 125.5t-29 181zM590 -168l4 -8h162l4 8q-18 131 -22.5 217t-4.5 246v457q0 331 27 501l-4 9h-162l-4 -9 q24 -163 24 -501v-457q0 -164 -4 -248.5t-20 -214.5z" />
<glyph unicode="&#xb7;" horiz-adv-x="464" d="M137 498q0 39 28.5 68.5t67.5 29.5q37 0 67 -30t30 -68t-30 -66.5t-67 -28.5q-39 0 -67.5 28.5t-28.5 66.5z" />
<glyph unicode="&#xb8;" horiz-adv-x="413" d="M0 -365l27 48h14q69 -25 141 -25q111 0 111 82q0 94 -107 94q-47 0 -98 -14l-18 22l104 158h70l-62 -104q36 8 70 8q70 0 116 -42.5t46 -105.5q0 -69 -65.5 -120.5t-160.5 -51.5q-96 0 -186 39z" />
<glyph unicode="&#xb9;" horiz-adv-x="538" d="M100 1206v23l2 8q128 62 195 125h8l29 -10q-8 -86 -8 -312v-112q0 -158 4 -215q2 -40 30 -60q25 -18 76 -18l6 -27q-50 4 -125 4h-69q-81 0 -127 -4l6 27q56 0 80 18q24 20 29 60q4 43 4 186v137q0 152 -4 205z" />
<glyph unicode="&#xba;" horiz-adv-x="737" d="M84 1051q0 126 77.5 211.5t205.5 85.5q132 0 209 -88.5t77 -215.5q0 -121 -74.5 -204.5t-209.5 -83.5q-138 0 -211.5 86.5t-73.5 208.5zM172 1053q0 -94 54.5 -165t142.5 -71q91 0 141.5 66t50.5 161q0 94 -54 165t-145 71q-92 0 -141 -66t-49 -161z" />
<glyph unicode="&#xbb;" horiz-adv-x="954" d="M125 143q130 132 285 349q-149 212 -285 350l8 20h119l16 -8q30 -49 73 -108t75.5 -100t122.5 -154q-206 -255 -271 -361l-16 -8h-119zM455 143q133 135 286 349q-147 208 -286 350l10 20h119l14 -8q83 -128 272 -362q-184 -225 -272 -361l-14 -8h-119z" />
<glyph unicode="&#xbc;" horiz-adv-x="1370" d="M115 39v8q46 52 86 101t83.5 106t70 92.5t82 111t81.5 111.5l248 338q214 293 311 463l10 8h156l-2 -8q-70 -78 -143.5 -170.5t-110.5 -143t-108 -149.5l-246 -338q-209 -288 -354 -522l-9 -8h-155zM123 1206v23l4 8q132 66 195 125h8l26 -10q-6 -86 -6 -312v-112 q0 -192 13.5 -242.5t76.5 -50.5l6 -27q-46 4 -104 4h-70q-81 0 -127 -4l7 27q55 0 79 18q23 23 28 60.5t5 185.5v137q0 152 -4 205zM780 268l275 449l121 16l12 -10q-8 -86 -8 -428h73l-16 -64h-57q0 -39 0.5 -59.5t1.5 -47.5t4 -39.5t8 -29t12 -23t18 -13.5t25 -9t33 -2 l4 -24q-10 0 -55.5 2t-54.5 2h-78q-12 0 -63.5 -2t-61.5 -2l8 24q21 0 36 2t27 10t19.5 14t13 23.5t8 28.5t4 39.5t1.5 47v58.5h-287l-10 7zM883 295h207q0 209 -5 346z" />
<glyph unicode="&#xbd;" horiz-adv-x="1423" d="M121 39v8q33 38 63 73.5t62 76t52.5 67t56.5 75t51 69t59 81t59 80.5l248 338q214 293 311 463l11 8h155l-2 -8q-169 -193 -362 -463l-246 -338q-209 -288 -354 -522l-9 -8h-155zM121 1206v23l4 8q126 61 194 125h9l28 -10q-8 -86 -8 -312v-112q0 -158 4 -215 q2 -40 31 -60q25 -18 55 -18l6 -27q-46 4 -104 4h-70q-81 0 -127 -4l7 27q55 0 79 18q25 25 29 60q4 43 4 186v137q0 152 -4 205zM842 4v25q27 34 99.5 114.5t126.5 142t99 135t45 120.5q0 50 -30 82t-99 32q-148 0 -163 -153h-48l-10 108q30 53 87 88t141 35 q217 0 217 -190q0 -54 -31.5 -116t-76.5 -115.5t-90 -101t-76.5 -85t-31.5 -55.5h66q52 0 78 0.5t53.5 4t39 8.5t24 17.5t18.5 26.5t14 39h29l-20 -164l-9 -10q-8 0 -101.5 3t-115.5 3h-108q-15 0 -34 -1t-43.5 -2.5t-37.5 -2.5z" />
<glyph unicode="&#xbe;" horiz-adv-x="1452" d="M102 735l11 90h43q8 -78 53 -113.5t110 -35.5q72 0 124.5 42.5t52.5 119.5q0 63 -40.5 109t-111.5 46h-31l13 43q60 1 95.5 44t35.5 98q0 58 -41.5 89t-98.5 31q-58 0 -99.5 -32.5t-41.5 -94.5q0 -12 2 -20h-45l-10 90q18 35 37.5 58t63 43t102.5 20q99 0 159 -53 t60 -127q0 -102 -109 -158q72 -16 109 -64t37 -110q0 -92 -74 -167t-189 -75q-140 0 -217 127zM197 39l2 8q38 44 75 90t63.5 79t66.5 86t60 80t68.5 93t69.5 94l248 338q204 279 311 463l8 8h156l-2 -8q-36 -40 -73 -84.5t-64 -78t-63.5 -82.5t-54.5 -73.5t-56 -77 t-49 -67.5l-246 -338q-231 -319 -355 -522l-10 -8h-155zM862 268l275 449l120 16l15 -10q-8 -86 -8 -428h71l-14 -64h-57q0 -52 0.5 -77.5t3.5 -56t9 -43t17.5 -26t28 -17t41.5 -3.5l4 -24q-9 0 -55 2t-56 2h-77q-10 0 -61.5 -2t-63.5 -2l8 24q20 0 35.5 2t27 9.5t19 13.5 t13 23t8 28.5t4 39t1.5 45.5v57v5h-284l-10 7zM967 295h204q0 236 -4 346z" />
<glyph unicode="&#xbf;" horiz-adv-x="878" d="M147 -127q0 70 30.5 143.5t74 134.5t87.5 117t76 109.5t34 93.5l8 127l12 12l72 35l12 -8q8 -140 8 -199q0 -61 -28 -123t-68.5 -116t-81 -109t-68.5 -120.5t-28 -131.5q0 -98 62.5 -153.5t139.5 -55.5q106 0 176 67.5t83 164.5l6 6h34l25 -191l-4 -18q-33 -53 -137 -83 t-189 -30q-39 0 -80 8.5t-88.5 31.5t-83.5 58t-60 95t-24 135zM408 879q0 38 28 66t68 28q39 0 68.5 -28t29.5 -66t-30 -68.5t-68 -30.5q-39 0 -67.5 30t-28.5 69z" />
<glyph unicode="&#xc0;" d="M-39 -4l4 37l10 8q34 0 53 3t46.5 14.5t51 41.5t46.5 78q26 53 266 670q41 104 105.5 265t74.5 187l121 62h23l336 -930q63 -178 96 -254q22 -48 45.5 -78t51 -41.5t47 -14.5t53.5 -3l10 -8l6 -37l-4 -8q-4 0 -92 6t-111 6h-67q-17 0 -64.5 -2.5t-103 -6t-64.5 -3.5l-4 8 l6 37l8 8q67 0 96 16t29 70q0 18 -5 42t-17 59.5t-22.5 65.5t-31 85.5t-34.5 93.5l-35 98h-459l-35 -98q-14 -38 -34.5 -93.5t-31 -85.5t-22.5 -65.5t-17 -59.5t-5 -42q0 -54 29 -70t96 -16l10 -8l6 -37l-4 -8q-12 1 -62 4t-95 5.5t-62 2.5h-39q-23 0 -111 -6t-92 -6z M459 1729q0 30 18.5 49t52.5 20l371 -205l4 -14l-10 -41l-16 -6l-412 158q-8 19 -8 39zM467 659h391l-194 527z" />
<glyph unicode="&#xc1;" d="M-39 -4l4 37l10 8q34 0 53 3t46.5 14.5t51 41.5t46.5 78q26 53 266 670q41 104 105.5 265t74.5 187l121 62h23l336 -930q63 -178 96 -254q22 -48 45.5 -78t51 -41.5t47 -14.5t53.5 -3l10 -8l6 -37l-4 -8q-4 0 -92 6t-111 6h-67q-17 0 -64.5 -2.5t-103 -6t-64.5 -3.5l-4 8 l6 37l8 8q67 0 96 16t29 70q0 18 -5 42t-17 59.5t-22.5 65.5t-31 85.5t-34.5 93.5l-35 98h-459l-35 -98q-14 -38 -34.5 -93.5t-31 -85.5t-22.5 -65.5t-17 -59.5t-5 -42q0 -54 29 -70t96 -16l10 -8l6 -37l-4 -8q-12 1 -62 4t-95 5.5t-62 2.5h-39q-23 0 -111 -6t-92 -6z M459 1579l6 14l369 205q34 -1 52.5 -20t18.5 -49q0 -25 -6 -39l-414 -158l-14 6zM467 659h391l-194 527z" />
<glyph unicode="&#xc2;" d="M-39 -4l4 37l10 8q34 0 53 3t46.5 14.5t51 41.5t46.5 78q26 53 266 670q41 104 105.5 265t74.5 187l121 62h23l336 -930q63 -178 96 -254q22 -48 45.5 -78t51 -41.5t47 -14.5t53.5 -3l10 -8l6 -37l-4 -8q-4 0 -92 6t-111 6h-67q-17 0 -64.5 -2.5t-103 -6t-64.5 -3.5l-4 8 l6 37l8 8q67 0 96 16t29 70q0 18 -5 42t-17 59.5t-22.5 65.5t-31 85.5t-34.5 93.5l-35 98h-459l-35 -98q-14 -38 -34.5 -93.5t-31 -85.5t-22.5 -65.5t-17 -59.5t-5 -42q0 -54 29 -70t96 -16l10 -8l6 -37l-4 -8q-12 1 -62 4t-95 5.5t-62 2.5h-39q-23 0 -111 -6t-92 -6z M449 1569l6 14l225 203h16l226 -203l6 -14l-13 -41l-14 -6l-213 127l-213 -127l-14 6zM467 659h391l-194 527z" />
<glyph unicode="&#xc3;" d="M-39 -4l4 37l10 8q34 0 53 3t46.5 14.5t51 41.5t46.5 78q26 53 266 670q41 104 105.5 265t74.5 187l121 62h23l336 -930q63 -178 96 -254q22 -48 45.5 -78t51 -41.5t47 -14.5t53.5 -3l10 -8l6 -37l-4 -8q-4 0 -92 6t-111 6h-67q-17 0 -64.5 -2.5t-103 -6t-64.5 -3.5l-4 8 l6 37l8 8q67 0 96 16t29 70q0 18 -5 42t-17 59.5t-22.5 65.5t-31 85.5t-34.5 93.5l-35 98h-459l-35 -98q-14 -38 -34.5 -93.5t-31 -85.5t-22.5 -65.5t-17 -59.5t-5 -42q0 -54 29 -70t96 -16l10 -8l6 -37l-4 -8q-12 1 -62 4t-95 5.5t-62 2.5h-39q-23 0 -111 -6t-92 -6z M328 1599q0 41 54 98.5t132 57.5q29 0 165 -8t202 -8q95 0 133 53l24 -16q0 -7 -6 -23.5t-20.5 -40t-34 -44.5t-51.5 -35.5t-68 -14.5q-25 0 -184.5 8t-204.5 8q-49 0 -70.5 -10.5t-44.5 -38.5zM467 659h391l-194 527z" />
<glyph unicode="&#xc4;" d="M-39 -4l4 37l10 8q34 0 53 3t46.5 14.5t51 41.5t46.5 78q26 53 266 670q41 104 105.5 265t74.5 187l121 62h23l336 -930q63 -178 96 -254q22 -48 45.5 -78t51 -41.5t47 -14.5t53.5 -3l10 -8l6 -37l-4 -8q-4 0 -92 6t-111 6h-67q-17 0 -64.5 -2.5t-103 -6t-64.5 -3.5l-4 8 l6 37l8 8q67 0 96 16t29 70q0 18 -5 42t-17 59.5t-22.5 65.5t-31 85.5t-34.5 93.5l-35 98h-459l-35 -98q-14 -38 -34.5 -93.5t-31 -85.5t-22.5 -65.5t-17 -59.5t-5 -42q0 -54 29 -70t96 -16l10 -8l6 -37l-4 -8q-12 1 -62 4t-95 5.5t-62 2.5h-39q-23 0 -111 -6t-92 -6z M459 1700q0 37 24.5 64.5t59.5 27.5q34 0 60 -27.5t26 -64.5q0 -38 -26 -64t-60 -26q-35 0 -59.5 26t-24.5 64zM467 659h391l-194 527zM739 1700q0 37 24.5 64.5t59.5 27.5q33 0 58.5 -28t25.5 -64q0 -37 -25.5 -63.5t-58.5 -26.5q-35 0 -59.5 26t-24.5 64z" />
<glyph unicode="&#xc5;" d="M-39 -4l4 37l10 8q34 0 53 3t46.5 14.5t51 41.5t46.5 78q26 53 266 670q41 104 105.5 265t74.5 187l121 62h23l336 -930q63 -178 96 -254q22 -48 45.5 -78t51 -41.5t47 -14.5t53.5 -3l10 -8l6 -37l-4 -8q-4 0 -92 6t-111 6h-67q-17 0 -64.5 -2.5t-103 -6t-64.5 -3.5l-4 8 l6 37l8 8q67 0 96 16t29 70q0 18 -5 42t-17 59.5t-22.5 65.5t-31 85.5t-34.5 93.5l-35 98h-459l-35 -98q-14 -38 -34.5 -93.5t-31 -85.5t-22.5 -65.5t-17 -59.5t-5 -42q0 -54 29 -70t96 -16l10 -8l6 -37l-4 -8q-12 1 -62 4t-95 5.5t-62 2.5h-39q-23 0 -111 -6t-92 -6z M467 659h391l-194 527zM514 1657q0 60 46.5 104.5t121.5 44.5q76 0 123 -46t47 -107q0 -58 -45 -101t-123 -43q-81 0 -125.5 45t-44.5 103zM590 1659q0 -39 27.5 -71t66.5 -32t64.5 30t25.5 67q0 39 -26.5 70.5t-67.5 31.5t-65.5 -29t-24.5 -67z" />
<glyph unicode="&#xc6;" horiz-adv-x="1746" d="M-72 -4l4 37l11 8q121 10 161 39q36 24 86 98q26 37 216.5 351.5t318.5 535.5q6 10 23.5 39t23.5 40t16 31t13.5 33t3.5 25q0 31 -16 44.5t-72 20.5l-8 9l-7 36l5 9q28 -3 138 -8t152 -5h279q42 0 190 4.5t156 4.5l8 -21l-8 -223h-51l-8 8q-6 95 -51.5 112t-292.5 17 h-138q-12 -160 -12 -491q34 1 90.5 1.5t82.5 1t59 3.5t50 10t27 18q41 52 41 101l8 8l37 4l6 -4q-8 -118 -8 -180q0 -51 8 -183l-6 -4l-39 4l-6 7q0 55 -41 106q-7 7 -18 12.5t-28 8.5t-34 4.5t-45.5 2t-51.5 1t-62.5 0.5h-69.5q0 -304 1.5 -381.5t8.5 -153.5 q1 -22 11 -30.5t32 -8.5h115q89 0 141 1.5t96.5 9t64.5 15.5t38.5 30.5t26 44.5t18.5 65l6 8h53l-36 -260l-17 -20q-7 0 -130 4t-165 4h-354q-17 0 -64 -2.5t-101 -5.5t-64 -4l-5 8l7 37l8 8q82 0 110 20q13 12 21 21.5t17 35t12 60.5q6 62 6 494h-326q-193 -323 -248 -428 t-55 -144q0 -36 29.5 -47.5t87.5 -11.5l10 -8l6 -37l-6 -8q-234 12 -252 12h-39q-23 0 -112.5 -6t-92.5 -6v8zM649 750h277q0 398 -2 464z" />
<glyph unicode="&#xc7;" horiz-adv-x="1339" d="M113 664q0 146 45 272t129.5 221.5t216.5 150t297 54.5q93 0 207.5 -16.5t208.5 -53.5l6 -18l-27 -187h-59l-7 9q-8 57 -63 94t-124.5 50t-154.5 13q-202 0 -319 -92q-94 -77 -143.5 -205.5t-49.5 -283.5q0 -280 153.5 -434t399.5 -154q99 0 206.5 26.5t195.5 88.5 l20 -23l-45 -92q-189 -104 -399 -107l-47 -81q23 8 57 8q70 0 116 -42.5t46 -105.5q0 -69 -65 -120.5t-160 -51.5q-97 0 -187 39l-2 12l27 48h14q69 -25 142 -25q110 0 110 82q0 94 -106 94q-48 0 -99 -14l-18 22l90 138q-280 22 -446 208t-166 476z" />
<glyph unicode="&#xc8;" horiz-adv-x="1148" d="M88 -4l6 37l10 8q81 0 109 20q14 12 21.5 21.5t17 35t12.5 60.5q4 82 4 254v416q0 250 -4 313q-2 34 -11.5 59.5t-17.5 35t-22 22.5q-28 20 -109 20l-10 9l-6 36l4 9q9 0 64.5 -4t107.5 -6.5t78 -2.5h336q42 0 189.5 4.5t154.5 4.5l10 -21l-8 -223h-51l-8 8 q-6 95 -51.5 112t-292.5 17h-197l-4 -80q-6 -114 -6 -311v-100q35 1 97 1.5t96.5 1t76 3.5t64.5 10t32 18q1 2 11 12.5t12.5 14.5t8 13t7.5 18.5t2 21.5l10 10l35 5l8 -5q-10 -153 -10 -161q0 -18 10 -183l-8 -4l-37 4l-8 7q0 61 -41 106q-9 10 -31.5 16t-64.5 8.5 t-73.5 3.5t-98 1h-98.5v-199q0 -232 10 -336q0 -21 9.5 -30t31.5 -9h174q89 0 141 1.5t96.5 9t64.5 15.5t38 30.5t25 44.5t18 65l8 8h53l-36 -260l-17 -20q-7 0 -130 4t-165 4h-413q-17 0 -64 -2.5t-101.5 -6t-64.5 -3.5zM360 1729q0 30 19 49t53 20l371 -205l6 -14l-12 -41 l-17 -6l-411 158q-9 21 -9 39z" />
<glyph unicode="&#xc9;" horiz-adv-x="1148" d="M88 -4l6 37l10 8q81 0 109 20q14 12 21.5 21.5t17 35t12.5 60.5q4 82 4 254v416q0 250 -4 313q-2 34 -11.5 59.5t-17.5 35t-22 22.5q-28 20 -109 20l-10 9l-6 36l4 9q9 0 64.5 -4t107.5 -6.5t78 -2.5h336q42 0 189.5 4.5t154.5 4.5l10 -21l-8 -223h-51l-8 8 q-6 95 -51.5 112t-292.5 17h-197l-4 -80q-6 -114 -6 -311v-100q35 1 97 1.5t96.5 1t76 3.5t64.5 10t32 18q1 2 11 12.5t12.5 14.5t8 13t7.5 18.5t2 21.5l10 10l35 5l8 -5q-10 -153 -10 -161q0 -18 10 -183l-8 -4l-37 4l-8 7q0 61 -41 106q-9 10 -31.5 16t-64.5 8.5 t-73.5 3.5t-98 1h-98.5v-199q0 -232 10 -336q0 -21 9.5 -30t31.5 -9h174q89 0 141 1.5t96.5 9t64.5 15.5t38 30.5t25 44.5t18 65l8 8h53l-36 -260l-17 -20q-7 0 -130 4t-165 4h-413q-17 0 -64 -2.5t-101.5 -6t-64.5 -3.5zM360 1579l7 14l370 205q33 -1 52.5 -20t19.5 -49 q0 -20 -8 -39l-414 -158l-14 6z" />
<glyph unicode="&#xca;" horiz-adv-x="1148" d="M88 -4l6 37l10 8q81 0 109 20q14 12 21.5 21.5t17 35t12.5 60.5q4 82 4 254v416q0 250 -4 313q-2 34 -11.5 59.5t-17.5 35t-22 22.5q-28 20 -109 20l-10 9l-6 36l4 9q9 0 64.5 -4t107.5 -6.5t78 -2.5h336q42 0 189.5 4.5t154.5 4.5l10 -21l-8 -223h-51l-8 8 q-6 95 -51.5 112t-292.5 17h-197l-4 -80q-6 -114 -6 -311v-100q35 1 97 1.5t96.5 1t76 3.5t64.5 10t32 18q1 2 11 12.5t12.5 14.5t8 13t7.5 18.5t2 21.5l10 10l35 5l8 -5q-10 -153 -10 -161q0 -18 10 -183l-8 -4l-37 4l-8 7q0 61 -41 106q-9 10 -31.5 16t-64.5 8.5 t-73.5 3.5t-98 1h-98.5v-199q0 -232 10 -336q0 -21 9.5 -30t31.5 -9h174q89 0 141 1.5t96.5 9t64.5 15.5t38 30.5t25 44.5t18 65l8 8h53l-36 -260l-17 -20q-7 0 -130 4t-165 4h-413q-17 0 -64 -2.5t-101.5 -6t-64.5 -3.5zM365 1569l6 14l225 203h16l226 -203l6 -14l-13 -41 l-14 -6l-213 127l-213 -127l-14 6z" />
<glyph unicode="&#xcb;" horiz-adv-x="1148" d="M88 -4l6 37l10 8q81 0 109 20q14 12 21.5 21.5t17 35t12.5 60.5q4 82 4 254v416q0 250 -4 313q-2 34 -11.5 59.5t-17.5 35t-22 22.5q-28 20 -109 20l-10 9l-6 36l4 9q9 0 64.5 -4t107.5 -6.5t78 -2.5h336q42 0 189.5 4.5t154.5 4.5l10 -21l-8 -223h-51l-8 8 q-6 95 -51.5 112t-292.5 17h-197l-4 -80q-6 -114 -6 -311v-100q35 1 97 1.5t96.5 1t76 3.5t64.5 10t32 18q1 2 11 12.5t12.5 14.5t8 13t7.5 18.5t2 21.5l10 10l35 5l8 -5q-10 -153 -10 -161q0 -18 10 -183l-8 -4l-37 4l-8 7q0 61 -41 106q-9 10 -31.5 16t-64.5 8.5 t-73.5 3.5t-98 1h-98.5v-199q0 -232 10 -336q0 -21 9.5 -30t31.5 -9h174q89 0 141 1.5t96.5 9t64.5 15.5t38 30.5t25 44.5t18 65l8 8h53l-36 -260l-17 -20q-7 0 -130 4t-165 4h-413q-17 0 -64 -2.5t-101.5 -6t-64.5 -3.5zM360 1700q0 37 24.5 64.5t59.5 27.5q34 0 60 -27.5 t26 -64.5q0 -38 -26 -64t-60 -26q-35 0 -59.5 26t-24.5 64zM641 1700q0 37 24.5 64.5t59.5 27.5q34 0 60 -27.5t26 -64.5q0 -38 -26 -64t-60 -26q-35 0 -59.5 26t-24.5 64z" />
<glyph unicode="&#xcc;" horiz-adv-x="684" d="M88 -4l6 37l10 8q81 0 109 20q14 12 21.5 21.5t17 35t12.5 60.5q4 82 4 254v416q0 250 -6 313q-7 79 -49 117q-28 20 -109 20l-10 9l-6 36l4 9q12 -1 65 -4.5t100.5 -6t64.5 -2.5h38q17 0 64.5 2.5t100.5 6t65 4.5l4 -9l-6 -36l-8 -9q-83 0 -111 -20q-14 -12 -21.5 -21.5 t-16.5 -35t-11 -60.5q-6 -76 -6 -311v-377q0 -201 6 -295q2 -35 11 -60.5t16.5 -35t21.5 -21.5q28 -20 111 -20l8 -8l6 -37l-4 -8q-10 0 -64.5 3.5t-101.5 6t-64 2.5h-38q-17 0 -64 -2.5t-101.5 -6t-64.5 -3.5zM117 1729q0 30 19 49t52 20l371 -205l6 -14l-12 -41l-14 -6 l-414 158q-8 19 -8 39z" />
<glyph unicode="&#xcd;" horiz-adv-x="684" d="M88 -4l6 37l10 8q81 0 109 20q14 12 21.5 21.5t17 35t12.5 60.5q4 82 4 254v416q0 250 -6 313q-7 79 -49 117q-28 20 -109 20l-10 9l-6 36l4 9q12 -1 65 -4.5t100.5 -6t64.5 -2.5h38q17 0 64.5 2.5t100.5 6t65 4.5l4 -9l-6 -36l-8 -9q-83 0 -111 -20q-14 -12 -21.5 -21.5 t-16.5 -35t-11 -60.5q-6 -76 -6 -311v-377q0 -201 6 -295q2 -35 11 -60.5t16.5 -35t21.5 -21.5q28 -20 111 -20l8 -8l6 -37l-4 -8q-10 0 -64.5 3.5t-101.5 6t-64 2.5h-38q-17 0 -64 -2.5t-101.5 -6t-64.5 -3.5zM117 1579l6 14l371 205q34 -1 52.5 -20t18.5 -49q0 -20 -8 -39 l-412 -158l-16 6z" />
<glyph unicode="&#xce;" horiz-adv-x="684" d="M88 -4l6 37l10 8q81 0 109 20q14 12 21.5 21.5t17 35t12.5 60.5q4 82 4 254v416q0 250 -6 313q-7 79 -49 117q-28 20 -109 20l-10 9l-6 36l4 9q12 -1 65 -4.5t100.5 -6t64.5 -2.5h38q17 0 64.5 2.5t100.5 6t65 4.5l4 -9l-6 -36l-8 -9q-83 0 -111 -20q-14 -12 -21.5 -21.5 t-16.5 -35t-11 -60.5q-6 -76 -6 -311v-377q0 -201 6 -295q2 -35 11 -60.5t16.5 -35t21.5 -21.5q28 -20 111 -20l8 -8l6 -37l-4 -8q-10 0 -64.5 3.5t-101.5 6t-64 2.5h-38q-17 0 -64 -2.5t-101.5 -6t-64.5 -3.5zM102 1569l7 14l225 203h14l227 -203l7 -14l-13 -41l-16 -6 l-211 127l-213 -127l-16 6z" />
<glyph unicode="&#xcf;" horiz-adv-x="684" d="M88 -4l6 37l10 8q81 0 109 20q14 12 21.5 21.5t17 35t12.5 60.5q4 82 4 254v416q0 250 -6 313q-7 79 -49 117q-28 20 -109 20l-10 9l-6 36l4 9q12 -1 65 -4.5t100.5 -6t64.5 -2.5h38q17 0 64.5 2.5t100.5 6t65 4.5l4 -9l-6 -36l-8 -9q-83 0 -111 -20q-14 -12 -21.5 -21.5 t-16.5 -35t-11 -60.5q-6 -76 -6 -311v-377q0 -201 6 -295q2 -35 11 -60.5t16.5 -35t21.5 -21.5q28 -20 111 -20l8 -8l6 -37l-4 -8q-10 0 -64.5 3.5t-101.5 6t-64 2.5h-38q-17 0 -64 -2.5t-101.5 -6t-64.5 -3.5zM125 1700q0 37 24.5 64.5t59.5 27.5q34 0 60 -27.5t26 -64.5 q0 -38 -26 -64t-60 -26q-35 0 -59.5 26t-24.5 64zM406 1700q0 37 24 64.5t59 27.5q34 0 60 -27.5t26 -64.5q0 -38 -26 -64t-60 -26q-35 0 -59 26t-24 64z" />
<glyph unicode="&#xd0;" horiz-adv-x="1505" d="M90 -4l6 37l10 8q81 0 109 18q41 28 51 119q4 82 4 254v236h-180l16 90h164v90q0 245 -4 313q-8 86 -51 117q-21 12 -41 16t-68 4l-10 9l-6 36l4 9l88 -6q88 -7 123 -7h117q36 0 149 4.5t146 4.5q156 0 285 -53.5t213.5 -146t131 -215t46.5 -261.5q0 -108 -27.5 -207.5 t-84.5 -185t-137.5 -148.5t-193.5 -99t-245 -36q-23 0 -132.5 2t-140.5 2h-108q-17 0 -64 -2.5t-101.5 -6t-64.5 -3.5zM416 473q0 -248 6 -295q6 -52 25.5 -66t74.5 -14h197q159 0 276 77.5t174.5 206t57.5 290.5q0 124 -35.5 228.5t-101 180t-163.5 118t-218 42.5h-283 q-10 -195 -10 -391v-92h364l-16 -90h-348v-195z" />
<glyph unicode="&#xd1;" horiz-adv-x="1527" d="M88 -4l6 37l10 8q79 0 109 20q43 33 51 117q4 41 4 254v416q0 250 -4 313q-6 85 -51 117q-28 20 -109 20l-10 9l-6 36l4 9q9 0 91.5 -6.5t105.5 -6.5h71q28 0 84 9l11 -7q4 -16 14 -38t28.5 -56t33 -59.5t44.5 -74.5t44.5 -72t51.5 -81.5t48 -76.5q71 -114 148 -227.5 t125.5 -180.5t96 -131t54.5 -74q2 39 2 162v416q0 218 -6 313q-3 35 -11.5 60t-16.5 35t-21 22q-28 20 -111 20l-8 9l-6 36l4 9q11 -1 89 -7t101 -6h96q66 0 193 13l2 -9l-4 -36l-10 -9q-83 0 -109 -20q-20 -16 -31.5 -40.5t-15.5 -76.5q-6 -76 -6 -311v-361q0 -314 14 -497 l-16 -10l-119 8l-20 24l-738 1092q-2 -53 -2 -256v-377q0 -232 6 -295q8 -87 52 -117q29 -20 110 -20l10 -8l7 -37l-5 -8q-12 1 -60.5 4t-92 5.5t-60.5 2.5h-38q-17 0 -64 -2.5t-101.5 -6t-64.5 -3.5zM393 1599q0 41 55 98.5t134 57.5q28 0 163 -8t201 -8q95 0 133 53 l25 -16q0 -9 -10.5 -32.5t-30 -53t-57 -51t-82.5 -21.5q-25 0 -183.5 8t-205.5 8q-49 0 -70.5 -10.5t-42.5 -38.5z" />
<glyph unicode="&#xd2;" horiz-adv-x="1562" d="M113 659q0 146 46 274t130 223.5t211.5 150.5t281.5 55q155 0 283.5 -55.5t212 -150.5t129 -219t45.5 -263q0 -109 -27.5 -210.5t-84.5 -190t-137 -154.5t-192 -104t-243 -38q-158 0 -284.5 54.5t-206.5 149t-122 217t-42 261.5zM272 674q0 -270 140.5 -429t367.5 -159 q158 0 276.5 80.5t178 212.5t59.5 293q0 165 -62 296.5t-182.5 208t-279.5 76.5q-236 0 -367 -161t-131 -418zM500 1729q0 30 18.5 49t52.5 20l369 -205l6 -14l-10 -41l-16 -6l-412 158q-8 19 -8 39z" />
<glyph unicode="&#xd3;" horiz-adv-x="1562" d="M113 659q0 146 46 274t130 223.5t211.5 150.5t281.5 55q155 0 283.5 -55.5t212 -150.5t129 -219t45.5 -263q0 -109 -27.5 -210.5t-84.5 -190t-137 -154.5t-192 -104t-243 -38q-158 0 -284.5 54.5t-206.5 149t-122 217t-42 261.5zM272 674q0 -270 140.5 -429t367.5 -159 q158 0 276.5 80.5t178 212.5t59.5 293q0 165 -62 296.5t-182.5 208t-279.5 76.5q-236 0 -367 -161t-131 -418zM616 1579l7 14l368 205q34 -1 53 -20t19 -49q0 -18 -6 -39l-414 -158l-16 6z" />
<glyph unicode="&#xd4;" horiz-adv-x="1562" d="M113 659q0 146 46 274t130 223.5t211.5 150.5t281.5 55q155 0 283.5 -55.5t212 -150.5t129 -219t45.5 -263q0 -109 -27.5 -210.5t-84.5 -190t-137 -154.5t-192 -104t-243 -38q-158 0 -284.5 54.5t-206.5 149t-122 217t-42 261.5zM272 674q0 -270 140.5 -429t367.5 -159 q158 0 276.5 80.5t178 212.5t59.5 293q0 165 -62 296.5t-182.5 208t-279.5 76.5q-236 0 -367 -161t-131 -418zM563 1569l6 14l226 203h16l225 -203l6 -14l-12 -41l-14 -6l-213 127l-213 -127l-15 6z" />
<glyph unicode="&#xd5;" horiz-adv-x="1562" d="M113 659q0 146 46 274t130 223.5t211.5 150.5t281.5 55q155 0 283.5 -55.5t212 -150.5t129 -219t45.5 -263q0 -109 -27.5 -210.5t-84.5 -190t-137 -154.5t-192 -104t-243 -38q-158 0 -284.5 54.5t-206.5 149t-122 217t-42 261.5zM272 674q0 -270 140.5 -429t367.5 -159 q158 0 276.5 80.5t178 212.5t59.5 293q0 165 -62 296.5t-182.5 208t-279.5 76.5q-236 0 -367 -161t-131 -418zM428 1599q0 41 55 98.5t133 57.5q28 0 163.5 -8t201.5 -8q95 0 133 53l25 -16q0 -9 -10.5 -32.5t-30.5 -53t-57.5 -51t-82.5 -21.5q-25 0 -183.5 8t-205.5 8 q-48 0 -69.5 -11t-42.5 -38z" />
<glyph unicode="&#xd6;" horiz-adv-x="1562" d="M113 659q0 146 46 274t130 223.5t211.5 150.5t281.5 55q155 0 283.5 -55.5t212 -150.5t129 -219t45.5 -263q0 -109 -27.5 -210.5t-84.5 -190t-137 -154.5t-192 -104t-243 -38q-158 0 -284.5 54.5t-206.5 149t-122 217t-42 261.5zM272 674q0 -270 140.5 -429t367.5 -159 q158 0 276.5 80.5t178 212.5t59.5 293q0 165 -62 296.5t-182.5 208t-279.5 76.5q-236 0 -367 -161t-131 -418zM592 1700q0 37 24.5 64.5t59.5 27.5q34 0 60 -27.5t26 -64.5q0 -38 -26 -64t-60 -26q-35 0 -59.5 26t-24.5 64zM872 1700q0 37 24.5 64.5t59.5 27.5 q34 0 60 -27.5t26 -64.5q0 -38 -26 -64t-60 -26q-35 0 -59.5 26t-24.5 64z" />
<glyph unicode="&#xd7;" horiz-adv-x="940" d="M145 242l246 247l-246 246l76 76l246 -246l250 248l76 -76l-250 -248l250 -249l-76 -76l-250 250l-246 -248z" />
<glyph unicode="&#xd8;" horiz-adv-x="1564" d="M84 -39l4 8l186 215q-161 190 -161 475q0 146 46 274t130.5 223.5t211.5 150.5t281 55q237 0 404 -123l119 137l12 8h135l-4 -8l-180 -211q90 -93 138 -221t48 -270q0 -137 -45 -261t-129 -222t-216 -156t-294 -58q-251 0 -418 132l-121 -140l-10 -8h-137zM274 674 q0 -228 101 -375l725 840q-136 114 -328 114q-236 0 -367 -161t-131 -418zM444 215q132 -129 336 -129q159 0 277.5 80.5t177.5 212t59 293.5q0 233 -120 387z" />
<glyph unicode="&#xd9;" horiz-adv-x="1480" d="M53 1343l4 9q12 -1 65 -4.5t100.5 -6t64.5 -2.5h39q17 0 64.5 2.5t100 6t64.5 4.5l4 -9l-6 -36l-8 -9q-83 0 -111 -20q-14 -12 -21.5 -21.5t-16.5 -35t-11 -60.5q-6 -76 -6 -311v-338q0 -215 96 -314.5t279 -99.5q376 0 376 414v338q0 235 -6 311q-6 82 -51 117 q-26 20 -108 20l-11 9l-6 36l4 9q7 0 95.5 -6.5t111.5 -6.5h45q23 0 119.5 6.5t99.5 6.5l4 -9l-6 -36l-8 -9q-82 0 -110 -20q-14 -13 -22 -22t-17 -34.5t-11 -60.5q-6 -94 -6 -313v-393q0 -102 -30.5 -188t-89.5 -151.5t-154.5 -102t-218.5 -36.5q-139 0 -242 36.5 t-163 102.5t-88 150.5t-28 188.5v393q0 250 -4 313q-2 34 -11.5 59.5t-17.5 35t-22 22.5q-28 20 -108 20l-11 9zM498 1729q0 30 18.5 49t52.5 20l371 -205l4 -14l-10 -41l-16 -6l-412 158q-8 19 -8 39z" />
<glyph unicode="&#xda;" horiz-adv-x="1480" d="M53 1343l4 9q12 -1 65 -4.5t100.5 -6t64.5 -2.5h39q17 0 64.5 2.5t100 6t64.5 4.5l4 -9l-6 -36l-8 -9q-83 0 -111 -20q-14 -12 -21.5 -21.5t-16.5 -35t-11 -60.5q-6 -76 -6 -311v-338q0 -215 96 -314.5t279 -99.5q376 0 376 414v338q0 235 -6 311q-6 82 -51 117 q-26 20 -108 20l-11 9l-6 36l4 9q7 0 95.5 -6.5t111.5 -6.5h45q23 0 119.5 6.5t99.5 6.5l4 -9l-6 -36l-8 -9q-82 0 -110 -20q-14 -13 -22 -22t-17 -34.5t-11 -60.5q-6 -94 -6 -313v-393q0 -102 -30.5 -188t-89.5 -151.5t-154.5 -102t-218.5 -36.5q-139 0 -242 36.5 t-163 102.5t-88 150.5t-28 188.5v393q0 250 -4 313q-2 34 -11.5 59.5t-17.5 35t-22 22.5q-28 20 -108 20l-11 9zM555 1579l6 14l371 205q34 -1 53 -20t19 -49q0 -18 -9 -39l-411 -158l-17 6z" />
<glyph unicode="&#xdb;" horiz-adv-x="1480" d="M53 1343l4 9q12 -1 65 -4.5t100.5 -6t64.5 -2.5h39q17 0 64.5 2.5t100 6t64.5 4.5l4 -9l-6 -36l-8 -9q-83 0 -111 -20q-14 -12 -21.5 -21.5t-16.5 -35t-11 -60.5q-6 -76 -6 -311v-338q0 -215 96 -314.5t279 -99.5q376 0 376 414v338q0 235 -6 311q-6 82 -51 117 q-26 20 -108 20l-11 9l-6 36l4 9q7 0 95.5 -6.5t111.5 -6.5h45q23 0 119.5 6.5t99.5 6.5l4 -9l-6 -36l-8 -9q-82 0 -110 -20q-14 -13 -22 -22t-17 -34.5t-11 -60.5q-6 -94 -6 -313v-393q0 -102 -30.5 -188t-89.5 -151.5t-154.5 -102t-218.5 -36.5q-139 0 -242 36.5 t-163 102.5t-88 150.5t-28 188.5v393q0 250 -4 313q-2 34 -11.5 59.5t-17.5 35t-22 22.5q-28 20 -108 20l-11 9zM504 1569l4 14l227 203h15l227 -203l4 -14l-10 -41l-17 -6l-211 127l-213 -127l-16 6z" />
<glyph unicode="&#xdc;" horiz-adv-x="1480" d="M53 1343l4 9q12 -1 65 -4.5t100.5 -6t64.5 -2.5h39q17 0 64.5 2.5t100 6t64.5 4.5l4 -9l-6 -36l-8 -9q-83 0 -111 -20q-14 -12 -21.5 -21.5t-16.5 -35t-11 -60.5q-6 -76 -6 -311v-338q0 -215 96 -314.5t279 -99.5q376 0 376 414v338q0 235 -6 311q-6 82 -51 117 q-26 20 -108 20l-11 9l-6 36l4 9q7 0 95.5 -6.5t111.5 -6.5h45q23 0 119.5 6.5t99.5 6.5l4 -9l-6 -36l-8 -9q-82 0 -110 -20q-14 -13 -22 -22t-17 -34.5t-11 -60.5q-6 -94 -6 -313v-393q0 -102 -30.5 -188t-89.5 -151.5t-154.5 -102t-218.5 -36.5q-139 0 -242 36.5 t-163 102.5t-88 150.5t-28 188.5v393q0 250 -4 313q-2 34 -11.5 59.5t-17.5 35t-22 22.5q-28 20 -108 20l-11 9zM549 1700q0 37 24.5 64.5t59.5 27.5q34 0 60 -27.5t26 -64.5q0 -38 -26 -64t-60 -26q-35 0 -59.5 26t-24.5 64zM829 1700q0 37 24.5 64.5t59.5 27.5 q34 0 60 -27.5t26 -64.5q0 -38 -26 -64t-60 -26q-35 0 -59.5 26t-24.5 64z" />
<glyph unicode="&#xdd;" horiz-adv-x="1241" d="M-23 1307v36l11 9q140 -17 182 -17h86q67 0 229 17l9 -9v-36l-9 -9q-87 -3 -120 -24q-25 -18 -25 -35q0 -19 20 -49q176 -323 283 -510q69 119 152 274t102 201q21 42 21 72q0 24 -15.5 38t-33 18t-50.5 8t-47 7l-8 9v36l8 9q87 -13 189 -13h118q90 0 189 13l8 -9v-36 l-8 -9q-94 -14 -141.5 -44.5t-106.5 -118.5q-56 -83 -106.5 -163.5t-74 -120.5t-66.5 -116t-52 -92q-29 -46 -29 -102v-72q0 -197 6 -291q4 -51 17 -75.5t35 -41.5q26 -20 108 -20l10 -8l6 -37l-4 -8q-10 1 -64 4t-101 5.5t-64 2.5h-39q-17 0 -64.5 -2.5t-102.5 -6t-64 -3.5 l-2 8l4 37l10 8q83 0 109 20q45 35 51 117q6 62 6 254v80q0 79 -49 158q-129 226 -314 512q-28 45 -65 78q-35 28 -127 38zM479 1579l6 14l369 205q34 -1 53 -20t19 -49q0 -18 -6 -39l-414 -158l-17 6z" />
<glyph unicode="&#xde;" horiz-adv-x="1087" d="M88 -4l6 37l10 8q81 0 109 20q14 12 21.5 21.5t17 35t12.5 60.5q4 82 4 254v416q0 250 -4 313q-4 75 -51 117q-28 20 -109 20l-10 9l-6 36l4 9q12 -1 65 -4.5t100.5 -6t64.5 -2.5h38q17 0 64.5 2.5t100.5 6t65 4.5l4 -9l-6 -36l-8 -9q-83 0 -111 -20q-28 -24 -37.5 -53.5 t-13.5 -79.5h102q262 0 382 -97.5t120 -271.5q0 -91 -33 -162t-84.5 -113.5t-124 -70t-143 -37.5t-148.5 -10h-75q0 -129 6 -205q2 -35 11 -60.5t16.5 -35t21.5 -21.5q28 -20 111 -20l8 -8l6 -37l-4 -8q-10 0 -64.5 3.5t-101.5 6t-64 2.5h-38q-17 0 -64 -2.5t-101.5 -6 t-64.5 -3.5zM414 473h147q320 0 320 293q0 137 -84.5 209t-233.5 72h-149v-574z" />
<glyph unicode="&#xdf;" horiz-adv-x="1171" d="M76 0l2 29l8 8q31 0 44.5 0.5t33 5.5t31.5 16q25 23 30.5 90.5t5.5 329.5v367h-147l-8 10v68l8 8h147v59q0 240 92.5 378t274.5 138q146 0 235 -80.5t89 -187.5q0 -51 -22.5 -99t-54 -85t-63.5 -71t-54.5 -72t-22.5 -74q0 -37 22 -69.5t57 -59t77.5 -53.5t85.5 -61.5 t78 -74.5t57 -99.5t22 -131.5q0 -68 -20 -123.5t-51.5 -89.5t-72.5 -57t-80.5 -32.5t-78.5 -9.5q-61 0 -122.5 22t-103.5 52l-4 19l25 211h35l6 -9q0 -95 41.5 -153t118.5 -58q75 0 122.5 54t47.5 145q0 59 -21 104.5t-54.5 75.5t-73.5 55t-80.5 50t-74 53t-54.5 70.5 t-21 97.5t21.5 109t52 96.5t61.5 83t52.5 84.5t21.5 84q0 73 -58 128.5t-151 55.5q-49 0 -87 -16.5t-61.5 -48.5t-39 -68.5t-23 -87.5t-10 -94t-2.5 -99v-465q0 -276 6 -368q3 -40 15.5 -66.5t34 -38t42 -15t49.5 -3.5l10 -10l4 -27l-4 -8q-148 8 -184 8h-55q-57 0 -205 -8z " />
<glyph unicode="&#xe0;" horiz-adv-x="1015" d="M76 248q0 143 127 225q64 41 175 65t176.5 28.5t113.5 4.5h28q-3 134 -24 193q-44 117 -211 117q-37 0 -71.5 -6.5t-71 -21.5t-60 -47t-27.5 -77l-8 -6h-45l-18 151l6 13q25 27 126 56.5t200 29.5q154 0 250 -80.5t96 -230.5q0 -124 -4.5 -275.5t-4.5 -226.5 q8 -83 31 -101q25 -22 113 -22l8 -8l2 -29l-2 -8q-98 8 -164 8q-77 0 -141 -6l-12 20q7 29 16 158q-60 -82 -150.5 -138.5t-193.5 -56.5q-122 0 -191 78.5t-69 192.5zM221 260q0 -77 44.5 -123.5t117.5 -46.5q78 0 161.5 48t119.5 98q20 35 22 59l10 205h-18 q-457 0 -457 -240zM227 1321q0 30 19 50.5t53 21.5l369 -207l6 -15l-10 -41l-17 -6l-414 158q-6 21 -6 39z" />
<glyph unicode="&#xe1;" horiz-adv-x="1015" d="M76 248q0 143 127 225q64 41 175 65t176.5 28.5t113.5 4.5h28q-3 134 -24 193q-44 117 -211 117q-37 0 -71.5 -6.5t-71 -21.5t-60 -47t-27.5 -77l-8 -6h-45l-18 151l6 13q25 27 126 56.5t200 29.5q154 0 250 -80.5t96 -230.5q0 -124 -4.5 -275.5t-4.5 -226.5 q8 -83 31 -101q25 -22 113 -22l8 -8l2 -29l-2 -8q-98 8 -164 8q-77 0 -141 -6l-12 20q7 29 16 158q-60 -82 -150.5 -138.5t-193.5 -56.5q-122 0 -191 78.5t-69 192.5zM221 260q0 -77 44.5 -123.5t117.5 -46.5q78 0 161.5 48t119.5 98q20 35 22 59l10 205h-18 q-457 0 -457 -240zM336 1171l6 15l369 207q34 -1 53.5 -21.5t19.5 -50.5q0 -20 -8 -39l-414 -158l-14 6z" />
<glyph unicode="&#xe2;" horiz-adv-x="1015" d="M76 248q0 143 127 225q64 41 175 65t176.5 28.5t113.5 4.5h28q-3 134 -24 193q-44 117 -211 117q-37 0 -71.5 -6.5t-71 -21.5t-60 -47t-27.5 -77l-8 -6h-45l-18 151l6 13q25 27 126 56.5t200 29.5q154 0 250 -80.5t96 -230.5q0 -124 -4.5 -275.5t-4.5 -226.5 q8 -83 31 -101q25 -22 113 -22l8 -8l2 -29l-2 -8q-98 8 -164 8q-77 0 -141 -6l-12 20q7 29 16 158q-60 -82 -150.5 -138.5t-193.5 -56.5q-122 0 -191 78.5t-69 192.5zM221 260q0 -77 44.5 -123.5t117.5 -46.5q78 0 161.5 48t119.5 98q20 35 22 59l10 205h-18 q-457 0 -457 -240zM242 1161l6 15l225 202h16l226 -202l6 -15l-12 -39l-15 -6l-213 125l-211 -125l-16 6z" />
<glyph unicode="&#xe3;" horiz-adv-x="1015" d="M76 248q0 143 127 225q64 41 175 65t176.5 28.5t113.5 4.5h28q-3 134 -24 193q-44 117 -211 117q-37 0 -71.5 -6.5t-71 -21.5t-60 -47t-27.5 -77l-8 -6h-45l-18 151l6 13q25 27 126 56.5t200 29.5q154 0 250 -80.5t96 -230.5q0 -124 -4.5 -275.5t-4.5 -226.5 q8 -83 31 -101q25 -22 113 -22l8 -8l2 -29l-2 -8q-98 8 -164 8q-77 0 -141 -6l-12 20q7 29 16 158q-60 -82 -150.5 -138.5t-193.5 -56.5q-122 0 -191 78.5t-69 192.5zM135 1194q0 41 54.5 98.5t132.5 57.5q29 0 164.5 -9.5t201.5 -9.5q93 0 133 53l25 -16q0 -9 -10.5 -32 t-30.5 -52.5t-57 -51.5t-82 -22q-25 0 -185 9.5t-207 9.5t-68 -11t-44 -40zM221 260q0 -77 44.5 -123.5t117.5 -46.5q78 0 161.5 48t119.5 98q20 35 22 59l10 205h-18q-457 0 -457 -240z" />
<glyph unicode="&#xe4;" horiz-adv-x="1015" d="M76 248q0 143 127 225q64 41 175 65t176.5 28.5t113.5 4.5h28q-3 134 -24 193q-44 117 -211 117q-37 0 -71.5 -6.5t-71 -21.5t-60 -47t-27.5 -77l-8 -6h-45l-18 151l6 13q25 27 126 56.5t200 29.5q154 0 250 -80.5t96 -230.5q0 -124 -4.5 -275.5t-4.5 -226.5 q8 -83 31 -101q25 -22 113 -22l8 -8l2 -29l-2 -8q-98 8 -164 8q-77 0 -141 -6l-12 20q7 29 16 158q-60 -82 -150.5 -138.5t-193.5 -56.5q-122 0 -191 78.5t-69 192.5zM221 260q0 -77 44.5 -123.5t117.5 -46.5q78 0 161.5 48t119.5 98q20 35 22 59l10 205h-18 q-457 0 -457 -240zM266 1292q0 37 24.5 64.5t59.5 27.5q33 0 58.5 -28t25.5 -64q0 -37 -25.5 -63.5t-58.5 -26.5q-35 0 -59.5 26t-24.5 64zM547 1292q0 37 24 64.5t58 27.5t60 -27.5t26 -64.5q0 -38 -26 -64t-60 -26t-58 26t-24 64z" />
<glyph unicode="&#xe5;" horiz-adv-x="1015" d="M76 248q0 143 127 225q64 41 175 65t176.5 28.5t113.5 4.5h28q-3 134 -24 193q-44 117 -211 117q-37 0 -71.5 -6.5t-71 -21.5t-60 -47t-27.5 -77l-8 -6h-45l-18 151l6 13q25 27 126 56.5t200 29.5q154 0 250 -80.5t96 -230.5q0 -124 -4.5 -275.5t-4.5 -226.5 q8 -83 31 -101q25 -22 113 -22l8 -8l2 -29l-2 -8q-98 8 -164 8q-77 0 -141 -6l-12 20q7 29 16 158q-60 -82 -150.5 -138.5t-193.5 -56.5q-122 0 -191 78.5t-69 192.5zM221 260q0 -77 44.5 -123.5t117.5 -46.5q78 0 161.5 48t119.5 98q20 35 22 59l10 205h-18 q-457 0 -457 -240zM360 1249q0 60 46.5 105t121.5 45q76 0 123 -46.5t47 -107.5q0 -58 -45 -100.5t-123 -42.5q-81 0 -125.5 44.5t-44.5 102.5zM436 1251q0 -38 27 -69t67 -31q39 0 65 29t26 65q0 39 -27 72t-68 33q-40 0 -65 -30.5t-25 -68.5z" />
<glyph unicode="&#xe6;" horiz-adv-x="1662" d="M76 248q0 143 127 225q64 41 175 65t176.5 28.5t113.5 4.5h28q-3 134 -24 193q-44 117 -211 117q-37 0 -71.5 -6.5t-71 -21.5t-60 -47t-27.5 -77l-8 -6h-45l-18 151l6 13q25 27 126 56.5t200 29.5q106 0 187.5 -41t123.5 -119q66 77 158.5 118.5t199.5 41.5q48 0 94 -8 t101.5 -33t99 -64.5t79.5 -108.5t50 -159l-12 -49l-35 -14q-74 0 -228 -2.5t-227 -2.5h-243q-2 -18 -2 -53q0 -64 14 -120t45 -106t77 -86t114.5 -56.5t152.5 -20.5q160 0 268 62l23 -13v-37l-21 -22q-55 -43 -146 -73t-194 -30q-132 0 -237 53t-170 150l-47 -47 q-152 -156 -381 -156q-122 0 -191 78.5t-69 192.5zM221 260q0 -77 44.5 -123.5t117.5 -46.5q78 0 161.5 48t119.5 98q20 35 22 59l10 205h-18q-457 0 -457 -240zM852 616h80q187 0 434 13q45 3 45 43q0 19 -8 43q-24 78 -86 122t-154 44q-126 0 -207 -75t-104 -190z" />
<glyph unicode="&#xe7;" horiz-adv-x="1042" d="M92 471q0 146 70.5 261.5t190 178t263.5 62.5q89 0 178 -23t140 -51l6 -18l-22 -158h-44l-8 6q0 45 -26.5 77t-68.5 47t-81 21.5t-78 6.5q-90 0 -161.5 -33.5t-114.5 -91t-65.5 -128t-22.5 -149.5t24.5 -149.5t71.5 -126.5t124 -88.5t175 -32.5q68 0 153.5 21.5 t147.5 54.5l21 -21l-31 -57q-52 -38 -148.5 -70.5t-191.5 -32.5l-51 -81q33 8 67 8q71 0 116.5 -42t45.5 -106q0 -69 -64 -120.5t-159 -51.5q-101 0 -187 39l-2 12l27 48h14q69 -25 142 -25q108 0 108 82q0 94 -104 94q-47 0 -101 -14l-16 22l92 140q-184 26 -307 159.5 t-123 329.5z" />
<glyph unicode="&#xe8;" horiz-adv-x="1075" d="M94 471q0 221 137 361.5t340 140.5q48 0 95 -8t102.5 -33t99 -64.5t79.5 -108.5t50 -159l-14 -49l-33 -14q-73 0 -227 -2.5t-229 -2.5h-242q-2 -18 -2 -53q0 -80 23 -148.5t69.5 -123.5t125.5 -86t183 -31q163 0 271 62l20 -13v-37l-20 -22q-55 -43 -146 -73t-194 -30 q-216 0 -352 137.5t-136 356.5zM262 616h80q187 0 434 13q45 3 45 43q0 19 -8 43q-24 78 -86 122t-154 44q-124 0 -206 -75.5t-105 -189.5zM289 1321q0 30 18.5 50.5t52.5 21.5l369 -207l6 -15l-10 -41l-16 -6l-414 158q-6 21 -6 39z" />
<glyph unicode="&#xe9;" horiz-adv-x="1075" d="M94 471q0 221 137 361.5t340 140.5q48 0 95 -8t102.5 -33t99 -64.5t79.5 -108.5t50 -159l-14 -49l-33 -14q-73 0 -227 -2.5t-229 -2.5h-242q-2 -18 -2 -53q0 -80 23 -148.5t69.5 -123.5t125.5 -86t183 -31q163 0 271 62l20 -13v-37l-20 -22q-55 -43 -146 -73t-194 -30 q-216 0 -352 137.5t-136 356.5zM262 616h80q187 0 434 13q45 3 45 43q0 19 -8 43q-24 78 -86 122t-154 44q-124 0 -206 -75.5t-105 -189.5zM395 1171l6 15l369 207q34 -1 53 -21.5t19 -50.5q0 -25 -6 -39l-414 -158l-14 6z" />
<glyph unicode="&#xea;" horiz-adv-x="1075" d="M94 471q0 221 137 361.5t340 140.5q48 0 95 -8t102.5 -33t99 -64.5t79.5 -108.5t50 -159l-14 -49l-33 -14q-73 0 -227 -2.5t-229 -2.5h-242q-2 -18 -2 -53q0 -80 23 -148.5t69.5 -123.5t125.5 -86t183 -31q163 0 271 62l20 -13v-37l-20 -22q-55 -43 -146 -73t-194 -30 q-216 0 -352 137.5t-136 356.5zM262 616h80q187 0 434 13q45 3 45 43q0 19 -8 43q-24 78 -86 122t-154 44q-124 0 -206 -75.5t-105 -189.5zM326 1161l4 15l227 202h14l228 -202l4 -15l-10 -39l-17 -6l-211 125l-213 -125l-16 6z" />
<glyph unicode="&#xeb;" horiz-adv-x="1075" d="M94 471q0 221 137 361.5t340 140.5q48 0 95 -8t102.5 -33t99 -64.5t79.5 -108.5t50 -159l-14 -49l-33 -14q-73 0 -227 -2.5t-229 -2.5h-242q-2 -18 -2 -53q0 -80 23 -148.5t69.5 -123.5t125.5 -86t183 -31q163 0 271 62l20 -13v-37l-20 -22q-55 -43 -146 -73t-194 -30 q-216 0 -352 137.5t-136 356.5zM262 616h80q187 0 434 13q45 3 45 43q0 19 -8 43q-24 78 -86 122t-154 44q-124 0 -206 -75.5t-105 -189.5zM336 1292q0 37 24.5 64.5t59.5 27.5q34 0 60 -27.5t26 -64.5q0 -38 -26 -64t-60 -26q-35 0 -59.5 26t-24.5 64zM616 1292 q0 37 24.5 64.5t59.5 27.5q34 0 60 -27.5t26 -64.5q0 -38 -26 -64t-60 -26q-35 0 -59.5 26t-24.5 64z" />
<glyph unicode="&#xec;" horiz-adv-x="567" d="M-27 1321q0 30 19 50.5t53 21.5l371 -207l6 -15l-12 -41l-17 -6l-411 158q-9 21 -9 39zM68 0l2 29l8 8q87 0 112 22q14 13 20 34.5t11 66.5q6 68 6 174v252q0 122 -6 205q-6 43 -26 63q-29 35 -115 35l-8 8v29l8 6h37q129 0 180 8l72 10l12 -18q-14 -32 -14 -154 q0 -13 -2.5 -67t-2.5 -123v-230q0 -70 9 -198q3 -44 9 -66t21 -35q28 -22 107 -22l10 -10l4 -27l-4 -8q-156 8 -209 8h-28q-55 0 -211 -8z" />
<glyph unicode="&#xed;" horiz-adv-x="567" d="M68 0l2 29l8 8q87 0 112 22q14 13 20 34.5t11 66.5q6 68 6 174v252q0 122 -6 205q-6 43 -26 63q-29 35 -115 35l-8 8v29l8 6h37q129 0 180 8l72 10l12 -18q-14 -32 -14 -154q0 -13 -2.5 -67t-2.5 -123v-230q0 -70 9 -198q3 -44 9 -66t21 -35q28 -22 107 -22l10 -10l4 -27 l-4 -8q-156 8 -209 8h-28q-55 0 -211 -8zM86 1171l6 15l369 207q34 -1 54 -21.5t20 -50.5q0 -18 -9 -39l-413 -158l-15 6z" />
<glyph unicode="&#xee;" horiz-adv-x="567" d="M35 1161l6 15l225 202h17l225 -202l6 -15l-12 -39l-15 -6l-213 125l-211 -125l-16 6zM68 0l2 29l8 8q87 0 112 22q14 13 20 34.5t11 66.5q6 68 6 174v252q0 122 -6 205q-6 43 -26 63q-29 35 -115 35l-8 8v29l8 6h37q129 0 180 8l72 10l12 -18q-14 -32 -14 -154 q0 -13 -2.5 -67t-2.5 -123v-230q0 -70 9 -198q3 -44 9 -66t21 -35q28 -22 107 -22l10 -10l4 -27l-4 -8q-156 8 -209 8h-28q-55 0 -211 -8z" />
<glyph unicode="&#xef;" horiz-adv-x="567" d="M49 1292q0 37 24.5 64.5t59.5 27.5q34 0 60 -27.5t26 -64.5q0 -38 -26 -64t-60 -26q-35 0 -59.5 26t-24.5 64zM68 0l2 29l8 8q87 0 112 22q14 13 20 34.5t11 66.5q6 68 6 174v252q0 122 -6 205q-6 43 -26 63q-29 35 -115 35l-8 8v29l8 6h37q129 0 180 8l72 10l12 -18 q-14 -32 -14 -154q0 -13 -2.5 -67t-2.5 -123v-230q0 -70 9 -198q3 -44 9 -66t21 -35q28 -22 107 -22l10 -10l4 -27l-4 -8q-156 8 -209 8h-28q-55 0 -211 -8zM330 1292q0 37 24.5 64.5t59.5 27.5q34 0 60 -27.5t26 -64.5q0 -38 -26 -64t-60 -26q-35 0 -59.5 26t-24.5 64z" />
<glyph unicode="&#xf0;" horiz-adv-x="1196" d="M94 475q0 101 33 191t93.5 158.5t154.5 108.5t209 40q87 0 171.5 -35.5t145.5 -106.5l6 3q-8 196 -129 391l-225 -90l-43 69l227 94q-26 57 -81 99.5t-103 60.5l35 58q146 -41 256 -179l205 82l43 -69l-199 -80q84 -133 130 -309.5t46 -364.5q0 -102 -15.5 -191 t-52 -168.5t-91 -136.5t-137 -90t-185.5 -33q-101 0 -184 28t-139.5 75.5t-95.5 111.5t-57 135t-18 148zM248 479q0 -77 22 -151t63 -135t107 -98.5t146 -37.5q83 0 148 37t103.5 99.5t58 136t19.5 153.5q0 188 -89.5 294t-247.5 106q-86 0 -151.5 -34.5t-103.5 -93.5 t-56.5 -128.5t-18.5 -147.5z" />
<glyph unicode="&#xf1;" horiz-adv-x="1245" d="M68 0l2 29l8 8q87 0 112 22q14 13 20 34.5t11 66.5q6 68 6 174v252q0 150 -6 205q-6 43 -26 63q-29 35 -115 35l-8 8v29l8 6h37q129 0 180 8l72 10l12 -18q-7 -23 -10 -51.5t-3.5 -69t-0.5 -45.5q124 207 346 207q128 0 226 -72.5t116 -212.5q8 -72 8 -231 q0 -49 1 -148.5t1 -148.5q8 -83 29 -101q28 -22 114 -22l6 -8l5 -29l-5 -8q-94 8 -161 8q-77 0 -142 -6l-14 20q13 47 18 146q9 170 9 307q0 121 -17 199q-20 92 -82.5 141t-148.5 49q-65 0 -125.5 -29t-100.5 -70.5t-64 -86.5t-24 -80v-232q0 -112 9 -198q5 -47 10.5 -67.5 t19.5 -33.5q28 -22 107 -22l10 -10l4 -27l-4 -8q-156 8 -209 8h-28q-55 0 -211 -8zM266 1194q0 41 55.5 98.5t133.5 57.5q28 0 163 -9.5t201 -9.5q95 0 133 53l25 -16q0 -9 -10.5 -32t-30 -52.5t-57 -51.5t-82.5 -22q-25 0 -183.5 9.5t-205.5 9.5t-69.5 -11.5t-43.5 -39.5z " />
<glyph unicode="&#xf2;" horiz-adv-x="1193" d="M92 475q0 101 35 191t98.5 158.5t159.5 108.5t211 40q118 0 215 -42t160 -113t97 -162t34 -191q0 -96 -32 -182t-92.5 -155t-158 -110t-219.5 -41q-125 0 -224.5 42.5t-160 113.5t-92 158.5t-31.5 183.5zM246 479q0 -76 24 -150.5t67.5 -135.5t112 -98.5t148.5 -37.5 q84 0 151 34.5t109 92.5t64 130.5t22 150.5q0 76 -24 150t-67.5 135.5t-112 99t-150.5 37.5q-86 0 -153.5 -35.5t-108 -94.5t-61.5 -130t-21 -148zM299 1321q0 30 19.5 50.5t52.5 21.5l370 -207l7 -15l-13 -41l-14 -6l-414 158q-8 19 -8 39z" />
<glyph unicode="&#xf3;" horiz-adv-x="1193" d="M92 475q0 101 35 191t98.5 158.5t159.5 108.5t211 40q118 0 215 -42t160 -113t97 -162t34 -191q0 -96 -32 -182t-92.5 -155t-158 -110t-219.5 -41q-125 0 -224.5 42.5t-160 113.5t-92 158.5t-31.5 183.5zM246 479q0 -76 24 -150.5t67.5 -135.5t112 -98.5t148.5 -37.5 q84 0 151 34.5t109 92.5t64 130.5t22 150.5q0 76 -24 150t-67.5 135.5t-112 99t-150.5 37.5q-86 0 -153.5 -35.5t-108 -94.5t-61.5 -130t-21 -148zM430 1171l6 15l369 207q34 -1 54 -21.5t20 -50.5q0 -18 -9 -39l-413 -158l-15 6z" />
<glyph unicode="&#xf4;" horiz-adv-x="1193" d="M92 475q0 101 35 191t98.5 158.5t159.5 108.5t211 40q118 0 215 -42t160 -113t97 -162t34 -191q0 -96 -32 -182t-92.5 -155t-158 -110t-219.5 -41q-125 0 -224.5 42.5t-160 113.5t-92 158.5t-31.5 183.5zM246 479q0 -76 24 -150.5t67.5 -135.5t112 -98.5t148.5 -37.5 q84 0 151 34.5t109 92.5t64 130.5t22 150.5q0 76 -24 150t-67.5 135.5t-112 99t-150.5 37.5q-86 0 -153.5 -35.5t-108 -94.5t-61.5 -130t-21 -148zM371 1161l6 15l227 202h14l226 -202l6 -15l-10 -39l-17 -6l-213 125l-211 -125l-16 6z" />
<glyph unicode="&#xf5;" horiz-adv-x="1193" d="M92 475q0 101 35 191t98.5 158.5t159.5 108.5t211 40q118 0 215 -42t160 -113t97 -162t34 -191q0 -96 -32 -182t-92.5 -155t-158 -110t-219.5 -41q-125 0 -224.5 42.5t-160 113.5t-92 158.5t-31.5 183.5zM221 1194q0 41 54.5 98.5t132.5 57.5q29 0 164.5 -9.5t201.5 -9.5 q95 0 133 53l25 -16q0 -9 -10.5 -32t-30.5 -52.5t-57 -51.5t-82 -22q-25 0 -185 9.5t-205 9.5q-48 0 -69 -11.5t-43 -39.5zM246 479q0 -76 24 -150.5t67.5 -135.5t112 -98.5t148.5 -37.5q84 0 151 34.5t109 92.5t64 130.5t22 150.5q0 76 -24 150t-67.5 135.5t-112 99 t-150.5 37.5q-86 0 -153.5 -35.5t-108 -94.5t-61.5 -130t-21 -148z" />
<glyph unicode="&#xf6;" horiz-adv-x="1193" d="M92 475q0 101 35 191t98.5 158.5t159.5 108.5t211 40q118 0 215 -42t160 -113t97 -162t34 -191q0 -96 -32 -182t-92.5 -155t-158 -110t-219.5 -41q-125 0 -224.5 42.5t-160 113.5t-92 158.5t-31.5 183.5zM246 479q0 -76 24 -150.5t67.5 -135.5t112 -98.5t148.5 -37.5 q84 0 151 34.5t109 92.5t64 130.5t22 150.5q0 76 -24 150t-67.5 135.5t-112 99t-150.5 37.5q-86 0 -153.5 -35.5t-108 -94.5t-61.5 -130t-21 -148zM371 1292q0 37 24.5 64.5t59.5 27.5q34 0 60 -27.5t26 -64.5q0 -38 -26 -64t-60 -26q-35 0 -59.5 26t-24.5 64zM651 1292 q0 37 24.5 64.5t59.5 27.5q34 0 60 -27.5t26 -64.5q0 -38 -26 -64t-60 -26q-35 0 -59.5 26t-24.5 64z" />
<glyph unicode="&#xf7;" horiz-adv-x="1150" d="M154 436l20 107h827l-18 -107h-829zM504 164q0 39 28.5 67.5t67.5 28.5q37 0 66.5 -29t29.5 -67q0 -39 -29.5 -67.5t-66.5 -28.5q-40 0 -68 28t-28 68zM504 813q0 39 28.5 68.5t67.5 29.5q37 0 66.5 -30t29.5 -68t-29.5 -66t-66.5 -28q-40 0 -68 28t-28 66z" />
<glyph unicode="&#xf8;" horiz-adv-x="1193" d="M92 475q0 101 35 191t98.5 158.5t159.5 108.5t211 40q172 0 297 -88l68 78l12 6h137l-4 -6l-131 -152q61 -69 94 -159t33 -187q0 -96 -32 -182t-92.5 -155t-158 -110t-219.5 -41q-165 0 -283 72l-67 -80l-12 -8h-138l4 8l127 146q-139 139 -139 360zM246 479 q0 -146 73 -262l496 576q-94 94 -225 94q-86 0 -153.5 -35.5t-108 -94.5t-61.5 -130t-21 -148zM391 135q88 -78 207 -78q84 0 151 34.5t109 92.5t64 130.5t22 150.5q0 126 -63 237z" />
<glyph unicode="&#xf9;" horiz-adv-x="1220" d="M35 897v29l6 6h37q129 0 180 8l72 10l12 -18q-12 -28 -12 -158q0 -48 -3 -161t-3 -148q0 -126 16 -199q20 -92 82.5 -141t148.5 -49q60 0 115.5 24.5t94.5 62.5t65 79t35 77v267q0 81 -9 205q-6 45 -24 63q-29 35 -115 35l-8 8v29l8 6h37q129 0 178 8l72 10l12 -18 q-12 -28 -12 -158q0 -13 -2 -65t-2 -121v-230q0 -27 6 -198q8 -83 31 -101q25 -22 112 -22l9 -8l4 -29l-4 -8q-98 8 -164 8q-78 0 -142 -6l-12 20q3 12 18 162q-125 -199 -339 -199q-130 0 -222 63t-118 206q-4 25 -6.5 56t-3 54t-1 61.5t-0.5 57.5q-2 72 -2 316 q0 33 -26 65q-29 33 -115 33zM303 1321q0 30 19 50.5t53 21.5l368 -207l7 -15l-11 -41l-16 -6l-412 158q-8 19 -8 39z" />
<glyph unicode="&#xfa;" horiz-adv-x="1220" d="M35 897v29l6 6h37q129 0 180 8l72 10l12 -18q-12 -28 -12 -158q0 -48 -3 -161t-3 -148q0 -126 16 -199q20 -92 82.5 -141t148.5 -49q60 0 115.5 24.5t94.5 62.5t65 79t35 77v267q0 81 -9 205q-6 45 -24 63q-29 35 -115 35l-8 8v29l8 6h37q129 0 178 8l72 10l12 -18 q-12 -28 -12 -158q0 -13 -2 -65t-2 -121v-230q0 -27 6 -198q8 -83 31 -101q25 -22 112 -22l9 -8l4 -29l-4 -8q-98 8 -164 8q-78 0 -142 -6l-12 20q3 12 18 162q-125 -199 -339 -199q-130 0 -222 63t-118 206q-4 25 -6.5 56t-3 54t-1 61.5t-0.5 57.5q-2 72 -2 316 q0 33 -26 65q-29 33 -115 33zM381 1171l6 15l369 207q34 -1 52.5 -21.5t18.5 -50.5q0 -18 -6 -39l-413 -158l-17 6z" />
<glyph unicode="&#xfb;" horiz-adv-x="1220" d="M35 897v29l6 6h37q129 0 180 8l72 10l12 -18q-12 -28 -12 -158q0 -48 -3 -161t-3 -148q0 -126 16 -199q20 -92 82.5 -141t148.5 -49q60 0 115.5 24.5t94.5 62.5t65 79t35 77v267q0 81 -9 205q-6 45 -24 63q-29 35 -115 35l-8 8v29l8 6h37q129 0 178 8l72 10l12 -18 q-12 -28 -12 -158q0 -13 -2 -65t-2 -121v-230q0 -27 6 -198q8 -83 31 -101q25 -22 112 -22l9 -8l4 -29l-4 -8q-98 8 -164 8q-78 0 -142 -6l-12 20q3 12 18 162q-125 -199 -339 -199q-130 0 -222 63t-118 206q-4 25 -6.5 56t-3 54t-1 61.5t-0.5 57.5q-2 72 -2 316 q0 33 -26 65q-29 33 -115 33zM348 1161l4 15l228 202h14l227 -202l4 -15l-10 -39l-16 -6l-213 125l-211 -125l-17 6z" />
<glyph unicode="&#xfc;" horiz-adv-x="1220" d="M35 897v29l6 6h37q129 0 180 8l72 10l12 -18q-12 -28 -12 -158q0 -48 -3 -161t-3 -148q0 -126 16 -199q20 -92 82.5 -141t148.5 -49q60 0 115.5 24.5t94.5 62.5t65 79t35 77v267q0 81 -9 205q-6 45 -24 63q-29 35 -115 35l-8 8v29l8 6h37q129 0 178 8l72 10l12 -18 q-12 -28 -12 -158q0 -13 -2 -65t-2 -121v-230q0 -27 6 -198q8 -83 31 -101q25 -22 112 -22l9 -8l4 -29l-4 -8q-98 8 -164 8q-78 0 -142 -6l-12 20q3 12 18 162q-125 -199 -339 -199q-130 0 -222 63t-118 206q-4 25 -6.5 56t-3 54t-1 61.5t-0.5 57.5q-2 72 -2 316 q0 33 -26 65q-29 33 -115 33zM360 1292q0 37 24.5 64.5t59.5 27.5q34 0 60 -27.5t26 -64.5q0 -38 -26 -64t-60 -26q-35 0 -59.5 26t-24.5 64zM641 1292q0 37 24.5 64.5t59.5 27.5q34 0 60 -27.5t26 -64.5q0 -38 -26 -64t-60 -26q-35 0 -59.5 26t-24.5 64z" />
<glyph unicode="&#xfd;" horiz-adv-x="1052" d="M-2 903v29l8 8q90 -12 146 -12h79q60 0 166 12l9 -8v-25l-9 -8q-104 -11 -104 -80q0 -28 33.5 -131t61 -178t46.5 -123l103 -266l96 235q2 4 23 56t32 80t31.5 83.5t31.5 92.5t20 80t9 71q0 40 -29 57.5t-77 22.5l-8 8v25l8 8q79 -12 149 -12h84q35 0 137 12l9 -8v-29 l-11 -10q-36 -4 -55.5 -20t-42.5 -54q-26 -44 -65 -134.5t-69.5 -169.5t-61.5 -161t-35 -92l-201 -500q-50 -125 -136.5 -191t-205.5 -97q-27 -6 -74 -6l-16 4l-4 49l8 10q69 0 111.5 14t93.5 66q72 75 114 180l66 166l-141 371q-5 12 -70.5 174t-95.5 239q-18 46 -37 78 q-21 34 -47.5 52t-67.5 22zM399 1171l7 15l368 207q34 -1 53 -21.5t19 -50.5q0 -25 -6 -39l-414 -158l-14 6z" />
<glyph unicode="&#xfe;" horiz-adv-x="1196" d="M14 -526l2 30l9 7q88 0 112 24q25 20 31 98q6 105 6 310v1042q0 239 -6 371q-2 32 -27 63q-30 35 -114 35l-9 8v27l9 8h36q130 0 181 8l80 11l10 -19q-9 -31 -12 -94q-7 -208 -7 -617q61 87 147 137t187 50q113 0 201 -40.5t141.5 -109.5t81 -154.5t27.5 -181.5 q0 -107 -28.5 -195t-74 -145t-105.5 -96.5t-120.5 -56.5t-120.5 -17q-226 0 -342 201v-188q0 -169 8 -357q5 -45 11 -66t20 -32q28 -24 107 -24l10 -9l4 -28l-4 -6q-19 0 -104 3t-105 3h-29q-19 0 -105 -3t-106 -3zM309 367q5 -28 18.5 -62t40.5 -72.5t63 -70t89.5 -52 t114.5 -20.5q78 0 138.5 33.5t97 89.5t55 125t18.5 145q0 97 -31.5 179.5t-102.5 138t-171 55.5q-72 0 -136 -28.5t-104 -71t-64 -86t-26 -78.5v-225z" />
<glyph unicode="&#xff;" horiz-adv-x="1052" d="M-2 903v29l8 8q90 -12 146 -12h79q60 0 166 12l9 -8v-25l-9 -8q-104 -11 -104 -80q0 -28 33.5 -131t61 -178t46.5 -123l103 -266l96 235q2 4 23 56t32 80t31.5 83.5t31.5 92.5t20 80t9 71q0 40 -29 57.5t-77 22.5l-8 8v25l8 8q79 -12 149 -12h84q35 0 137 12l9 -8v-29 l-11 -10q-36 -4 -55.5 -20t-42.5 -54q-26 -44 -65 -134.5t-69.5 -169.5t-61.5 -161t-35 -92l-201 -500q-50 -125 -136.5 -191t-205.5 -97q-27 -6 -74 -6l-16 4l-4 49l8 10q69 0 111.5 14t93.5 66q72 75 114 180l66 166l-141 371q-5 12 -70.5 174t-95.5 239q-18 46 -37 78 q-21 34 -47.5 52t-67.5 22zM301 1292q0 37 24.5 64.5t59.5 27.5q34 0 60 -27.5t26 -64.5q0 -38 -26 -64t-60 -26q-35 0 -59.5 26t-24.5 64zM582 1292q0 37 24.5 64.5t59.5 27.5q34 0 60 -27.5t26 -64.5q0 -38 -26 -64t-60 -26q-35 0 -59.5 26t-24.5 64z" />
<glyph unicode="&#x152;" horiz-adv-x="1951" d="M115 659q0 149 40.5 274.5t120.5 222.5t210 151.5t298 54.5q58 0 178 -11.5t201 -11.5h318q42 0 189.5 4.5t154.5 4.5l10 -21l-8 -223h-53l-7 8q-6 95 -52 112t-294 17h-174l-6 -80q-6 -80 -6 -311v-100q40 1 106.5 1.5t93.5 1t63.5 3.5t55 10t29.5 18q14 14 27.5 43.5 t13.5 57.5l10 8l35 4l8 -4q-10 -147 -10 -182q0 -16 10 -181l-8 -4l-37 4l-8 7q0 30 -13 61.5t-28 44.5q-11 10 -30 16t-57.5 8.5t-65 3.5t-93.5 1h-102v-199q0 -232 10 -336q2 -22 11 -30.5t32 -8.5h154q89 0 140.5 1.5t96 9t64.5 16t38.5 30.5t25.5 44t18 65l8 8h53 l-39 -260l-14 -20q-6 0 -130 4t-167 4h-315q-54 0 -201.5 -11.5t-216.5 -11.5q-334 0 -511 184.5t-177 497.5zM279 690q0 -305 142 -455.5t396 -150.5q137 0 258 51q17 139 17 297v416q0 188 -27 270q-25 73 -84 104t-178 31q-524 0 -524 -563z" />
<glyph unicode="&#x153;" horiz-adv-x="1918" d="M92 475q0 101 35 191t98.5 158.5t159.5 108.5t211 40q140 0 247 -58t173 -159q65 102 170 159.5t231 57.5q48 0 94 -8t101.5 -33t99 -64.5t79.5 -108.5t50 -159l-14 -49l-33 -14q-74 0 -228 -2.5t-227 -2.5h-243q-2 -18 -2 -53q0 -64 14 -120t45 -106t77 -86t114.5 -56.5 t152.5 -20.5q160 0 268 62l21 -13v-37l-19 -22q-55 -43 -146 -73t-194 -30q-131 0 -236 54t-171 151q-63 -96 -168.5 -150.5t-251.5 -54.5q-125 0 -224.5 42.5t-160 113.5t-92 158.5t-31.5 183.5zM246 479q0 -76 24 -150.5t67.5 -135.5t112 -98.5t148.5 -37.5q84 0 151 34.5 t109 92.5t64 130.5t22 150.5q0 76 -24 150t-67.5 135.5t-112 99t-150.5 37.5q-86 0 -153.5 -35.5t-108 -94.5t-61.5 -130t-21 -148zM1108 616h80q187 0 434 13q45 3 45 43q0 19 -8 43q-24 78 -86 122t-154 44q-126 0 -207 -75t-104 -190z" />
<glyph unicode="&#x178;" horiz-adv-x="1241" d="M-23 1307v36l11 9q140 -17 182 -17h86q67 0 229 17l9 -9v-36l-9 -9q-87 -3 -120 -24q-25 -18 -25 -35q0 -19 20 -49q176 -323 283 -510q69 119 152 274t102 201q21 42 21 72q0 24 -15.5 38t-33 18t-50.5 8t-47 7l-8 9v36l8 9q87 -13 189 -13h118q90 0 189 13l8 -9v-36 l-8 -9q-94 -14 -141.5 -44.5t-106.5 -118.5q-56 -83 -106.5 -163.5t-74 -120.5t-66.5 -116t-52 -92q-29 -46 -29 -102v-72q0 -197 6 -291q4 -51 17 -75.5t35 -41.5q26 -20 108 -20l10 -8l6 -37l-4 -8q-10 1 -64 4t-101 5.5t-64 2.5h-39q-17 0 -64.5 -2.5t-102.5 -6t-64 -3.5 l-2 8l4 37l10 8q83 0 109 20q45 35 51 117q6 62 6 254v80q0 79 -49 158q-129 226 -314 512q-28 45 -65 78q-35 28 -127 38zM401 1700q0 37 24.5 64.5t59.5 27.5q33 0 58.5 -28t25.5 -64q0 -37 -25.5 -63.5t-58.5 -26.5q-35 0 -59.5 26t-24.5 64zM682 1700q0 37 24 64.5 t58 27.5t60 -27.5t26 -64.5q0 -38 -26 -64t-60 -26t-58 26t-24 64z" />
<glyph unicode="&#x2c6;" horiz-adv-x="479" d="M0 1161l6 15l225 202h17l225 -202l6 -15l-12 -39l-14 -6l-213 125l-213 -125l-15 6z" />
<glyph unicode="&#x2dc;" horiz-adv-x="710" d="M0 1194q0 41 54 98.5t132 57.5q29 0 165 -9.5t202 -9.5q93 0 133 53l25 -16q0 -6 -6 -22.5t-20.5 -40t-34.5 -44.5t-52 -36t-68 -15q-25 0 -184.5 9.5t-206.5 9.5t-68 -11t-44 -40z" />
<glyph unicode="&#x2000;" horiz-adv-x="903" />
<glyph unicode="&#x2001;" horiz-adv-x="1806" />
<glyph unicode="&#x2002;" horiz-adv-x="903" />
<glyph unicode="&#x2003;" horiz-adv-x="1806" />
<glyph unicode="&#x2004;" horiz-adv-x="602" />
<glyph unicode="&#x2005;" horiz-adv-x="451" />
<glyph unicode="&#x2006;" horiz-adv-x="301" />
<glyph unicode="&#x2007;" horiz-adv-x="301" />
<glyph unicode="&#x2008;" horiz-adv-x="225" />
<glyph unicode="&#x2009;" horiz-adv-x="361" />
<glyph unicode="&#x200a;" horiz-adv-x="100" />
<glyph unicode="&#x2010;" horiz-adv-x="964" d="M137 436l19 107h673l-20 -107h-672z" />
<glyph unicode="&#x2011;" horiz-adv-x="964" d="M137 436l19 107h673l-20 -107h-672z" />
<glyph unicode="&#x2012;" horiz-adv-x="964" d="M137 436l19 107h673l-20 -107h-672z" />
<glyph unicode="&#x2013;" horiz-adv-x="1122" d="M137 436l21 107h827l-18 -107h-830z" />
<glyph unicode="&#x2014;" horiz-adv-x="1609" d="M137 436l21 107h1315l-19 -107h-1317z" />
<glyph unicode="&#x2018;" horiz-adv-x="313" d="M27 1427q0 89 51 89q43 0 82 -18.5t39 -49.5q0 -23 -11.5 -55t-11.5 -45q0 -66 47 -142v-8l-12 -10h-12q-52 22 -112 94t-60 145z" />
<glyph unicode="&#x2019;" horiz-adv-x="313" d="M90 1198v8q47 76 47 142q0 13 -11 45t-11 55q0 31 39 49.5t82 18.5q51 0 51 -89q0 -73 -60 -145t-112 -94h-13z" />
<glyph unicode="&#x201a;" horiz-adv-x="436" d="M104 -137q48 75 48 139q0 13 -11.5 45t-11.5 55q0 31 39 49.5t82 18.5q51 0 51 -88q0 -72 -60.5 -145.5t-111.5 -94.5h-12l-13 13v8z" />
<glyph unicode="&#x201c;" horiz-adv-x="624" d="M25 1427q0 89 53 89q43 0 82 -17.5t39 -48.5q0 -23 -11.5 -55.5t-11.5 -46.5q0 -70 47 -140v-8l-12 -12h-12q-53 23 -113.5 95t-60.5 144zM338 1427q0 89 51 89q43 0 82 -17.5t39 -48.5q0 -23 -11.5 -55.5t-11.5 -46.5q0 -65 48 -140v-8l-13 -12h-12q-52 24 -112 96 t-60 143z" />
<glyph unicode="&#x201d;" horiz-adv-x="655" d="M57 1495v8l13 13h12q52 -24 112 -96.5t60 -143.5q0 -88 -51 -88q-43 0 -82 17t-39 48q0 23 11 56t11 47q0 65 -47 139zM369 1495v8l12 13h12q53 -23 113.5 -95.5t60.5 -144.5q0 -88 -53 -88q-43 0 -82 17t-39 48q0 23 11.5 56t11.5 47q0 69 -47 139z" />
<glyph unicode="&#x201e;" horiz-adv-x="768" d="M104 -137q48 75 48 139q0 13 -11.5 45t-11.5 55q0 31 39 49.5t82 18.5q51 0 51 -88q0 -72 -60.5 -145.5t-111.5 -94.5h-12l-13 13v8zM434 -137q49 73 49 139q0 13 -12 45t-12 55q0 31 40 49.5t81 18.5q21 0 33.5 -16.5t16 -34.5t3.5 -37q0 -72 -61 -145.5t-113 -94.5h-10 l-15 13v8z" />
<glyph unicode="&#x2022;" horiz-adv-x="544" d="M133 498q0 56 40.5 98.5t98.5 42.5q54 0 97 -43t43 -98q0 -57 -42.5 -97.5t-97.5 -40.5q-59 0 -99 40t-40 98z" />
<glyph unicode="&#x2026;" horiz-adv-x="1218" d="M127 72q0 39 27.5 68.5t66.5 29.5q38 0 68 -30t30 -68t-29.5 -66.5t-68.5 -28.5t-66.5 28t-27.5 67zM514 72q0 39 28 68.5t66 29.5t68.5 -30t30.5 -68t-30 -66.5t-69 -28.5q-38 0 -66 28.5t-28 66.5zM901 72q0 39 28 68.5t66 29.5t68.5 -30t30.5 -68t-30 -66.5t-69 -28.5 q-38 0 -66 28.5t-28 66.5z" />
<glyph unicode="&#x202f;" horiz-adv-x="361" />
<glyph unicode="&#x2039;" horiz-adv-x="622" d="M84 492q191 239 270 362l15 8h118l11 -20q-143 -145 -287 -350q150 -210 287 -349l-11 -20h-118l-15 8q-85 132 -270 361z" />
<glyph unicode="&#x203a;" horiz-adv-x="622" d="M125 143q130 132 285 349q-149 212 -285 350l8 20h119l16 -8q30 -49 73 -108t75.5 -100t122.5 -154q-206 -255 -271 -361l-16 -8h-119z" />
<glyph unicode="&#x205f;" horiz-adv-x="451" />
<glyph unicode="&#x20ac;" horiz-adv-x="1280" d="M78 539l14 90h144v108h-158l16 90h154q20 116 68 213.5t118.5 169t167.5 112t209 40.5q190 0 334 -70l4 -18l-31 -187h-57l-6 9q-5 48 -27.5 81t-59 48.5t-73.5 21.5t-84 6q-93 0 -154 -22.5t-108 -69.5q-110 -110 -148 -334h568l-17 -90h-561v-108h543l-16 -90h-519 q29 -219 146.5 -337t288.5 -118q81 0 171.5 27t159.5 88l17 -23l-41 -92q-153 -107 -336 -107q-222 0 -376.5 154t-186.5 408h-164z" />
<glyph unicode="&#x2122;" horiz-adv-x="1550" d="M143 1223v114l9 13q23 -13 167 -13h93q142 0 163 13l7 -7l8 -120l-41 2q-6 37 -23 45q-17 10 -108 10h-8q0 -11 -1 -55t-1 -86v-174q0 -77 6.5 -110t21.5 -42.5t51 -9.5l5 -37q-7 0 -46.5 2t-46.5 2h-71q-8 0 -44 -2t-44 -2l4 37q55 0 67.5 26t12.5 119v191q0 63 -5 141 h-8q-95 0 -108 -10q-19 -9 -25 -45zM637 766l6 37q39 0 55.5 29.5t22.5 115.5l12 191q6 114 6 127q0 25 -7.5 33t-24.5 8q-6 0 -16.5 -1t-16.5 -1l-4 38q8 0 47.5 -3t48.5 -3h39q39 0 57 6q-2 0 26.5 -92t68.5 -207.5t63 -164.5q11 17 86.5 208t91.5 256q9 -6 29 -6h63 q8 0 47 3t47 3v-36h-36q-23 0 -28 -12.5t-5 -63.5q0 -45 4 -92l12 -174q5 -74 12 -109.5t15.5 -45t25.5 -9.5q4 0 13 1t14 1l6 -37q-8 0 -47 2t-47 2h-35q-8 0 -47.5 -2t-46.5 -2l4 37q30 0 46 12t16 45q0 9 -3 38.5t-4 49.5l-20 303q-14 -30 -88.5 -224t-95.5 -245h-82 l-162 467q0 -8 -4 -41t-6 -69l-11 -174q-1 -22 -2.5 -40t-2 -26.5t-1 -15t-0.5 -11.5q0 -25 3 -40t12.5 -21t16.5 -7t24 -1l6 -37q-8 0 -41 2t-41 2h-33q-8 0 -44.5 -2t-43.5 -2z" />
<glyph unicode="&#x25fc;" horiz-adv-x="942" d="M0 0v942h942v-942h-942z" />
</font>
</defs>
</svg>
